<?xml version="1.0" encoding="UTF-8" standalone="no"?>
<!DOCTYPE svg PUBLIC "-//W3C//DTD SVG 1.1//EN" "http://www.w3.org/Graphics/SVG/1.1/DTD/svg11.dtd">
<svg xmlns="http://www.w3.org/2000/svg" version="1.1" viewBox="0.00 0.00 1920.00 1080.00">
<g stroke-width="2.00" fill="none" stroke-linecap="butt">
<path stroke="#808080" vector-effect="non-scaling-stroke" d="
  M 1210.24 540.11
  A 250.15 250.15 0.0 0 0 960.09 289.96
  A 250.15 250.15 0.0 0 0 709.94 540.11
  A 250.15 250.15 0.0 0 0 960.09 790.26
  A 250.15 250.15 0.0 0 0 1210.24 540.11"
/>
<path stroke="#3a5731" vector-effect="non-scaling-stroke" d="
  M 1173.69 655.10
  A 24.48 1.81 -62.5 0 0 1175.30 652.04"
/>
<path stroke="#596d5c" vector-effect="non-scaling-stroke" d="
  M 1175.30 652.04
  A 242.73 242.65 56.0 0 0 1201.57 516.47
  A 242.86 242.71 28.1 0 0 1173.64 424.82
  A 242.54 242.54 0.0 0 0 1114.88 353.12
  A 242.73 242.73 0.0 0 0 1005.22 301.53
  A 171.04 120.76 8.2 0 0 981.26 298.21
  A 243.18 242.58 44.5 0 0 935.50 298.52
  A 168.64 118.08 -8.5 0 0 911.92 302.09
  A 242.70 242.61 -67.8 0 0 823.69 339.16
  A 242.70 242.70 0.0 0 0 737.29 443.49
  A 242.77 242.71 -33.5 0 0 717.28 542.00
  A 243.63 243.07 -51.0 0 0 722.02 587.74
  A 242.78 242.73 -73.3 0 0 788.87 712.13
  A 243.09 242.99 84.0 0 0 827.45 743.33
  A 242.73 242.72 -28.5 0 0 960.76 782.71
  A 242.74 242.71 28.0 0 0 1095.13 741.62
  A 242.77 242.73 -2.8 0 0 1173.69 655.10"
/>
<path stroke="#93c48d" vector-effect="non-scaling-stroke" d="
  M 1175.30 652.04
  L 1071.86 652.06
  A 0.21 0.21 0.0 0 1 1071.76 651.67
  Q 1089.02 641.62 1085.81 621.72
  Q 1085.68 620.93 1084.82 618.61
  Q 1084.24 617.08 1084.03 615.45"
/>
<path stroke="#596d5c" vector-effect="non-scaling-stroke" d="
  M 1084.03 615.45
  C 1089.68 616.46 1096.31 614.20 1095.01 607.35
  C 1094.19 602.98 1088.33 601.39 1084.32 600.00
  C 1082.38 599.31 1081.17 597.80 1082.48 595.97
  A 1.47 1.46 -78.4 0 1 1083.37 595.38
  Q 1088.86 594.14 1090.93 599.62
  A 0.72 0.70 -9.9 0 0 1091.60 600.08
  L 1093.43 600.08
  A 0.49 0.49 0.0 0 0 1093.92 599.59
  L 1093.92 592.93
  A 0.73 0.72 -83.5 0 0 1093.36 592.22
  Q 1091.58 591.81 1090.41 592.76
  A 0.90 0.89 -54.3 0 1 1089.53 592.91
  C 1083.42 590.66 1076.91 592.52 1076.72 599.90
  A 2.58 2.50 35.1 0 0 1076.93 601.00
  C 1078.76 605.41 1084.47 606.51 1087.76 607.99
  Q 1089.17 608.63 1089.65 609.53
  A 1.96 1.81 -19.0 0 1 1088.22 612.20
  Q 1082.42 613.36 1079.94 608.24
  A 0.87 0.87 0.0 0 0 1079.29 607.76
  L 1077.08 607.42"
/>
<path stroke="#93c48d" vector-effect="non-scaling-stroke" d="
  M 1077.08 607.42
  L 1071.16 603.12"
/>
<path stroke="#596d5c" vector-effect="non-scaling-stroke" d="
  M 1071.16 603.12
  L 1072.94 602.96
  A 0.56 0.55 89.4 0 0 1073.44 602.44
  Q 1073.81 596.30 1069.42 593.63
  C 1062.40 589.34 1053.86 593.62 1052.57 601.93"
/>
<path stroke="#93c48d" vector-effect="non-scaling-stroke" d="
  M 1052.57 601.93
  Q 1050.82 601.82 1049.08 602.82
  Q 1048.15 603.36 1047.29 602.79"
/>
<path stroke="#596d5c" vector-effect="non-scaling-stroke" d="
  M 1047.29 602.79
  C 1047.58 597.44 1046.35 591.72 1039.72 592.10
  Q 1036.65 592.28 1033.93 594.03
  A 0.41 0.41 0.0 0 1 1033.33 593.82
  L 1032.72 592.03"
/>
<path stroke="#93c48d" vector-effect="non-scaling-stroke" d="
  M 1032.72 592.03
  L 1068.61 586.37
  A 0.63 0.62 83.8 0 0 1069.13 585.72
  L 1068.16 567.89
  A 3.01 2.97 -24.0 0 1 1069.06 565.60
  L 1167.88 468.86
  A 0.56 0.55 -64.2 0 0 1167.55 467.91
  Q 1148.35 466.06 1131.00 464.47
  Q 1129.23 464.31 1127.84 465.84
  Q 1086.77 510.93 1067.06 532.41
  A 0.46 0.46 0.0 0 1 1066.26 532.12
  L 1065.76 522.90
  A 0.48 0.48 0.0 0 0 1065.13 522.48
  Q 1055.56 525.82 1047.91 528.42
  Q 1031.82 533.91 1020.46 547.09"
/>
<path stroke="#596d5c" vector-effect="non-scaling-stroke" d="
  M 1020.46 547.09
  C 1020.18 539.96 1021.16 529.15 1009.84 532.64
  Q 1007.95 533.22 1006.75 534.18
  A 0.38 0.37 -18.0 0 1 1006.14 533.87
  Q 1006.20 532.45 1005.56 532.14
  A 0.72 0.71 47.7 0 0 1004.99 532.11
  Q 1001.10 533.61 997.66 533.59
  A 0.71 0.71 0.0 0 0 996.95 534.34
  L 997.07 536.54
  A 0.44 0.43 86.1 0 0 997.53 536.95
  L 999.69 536.83
  A 0.38 0.38 0.0 0 1 1000.09 537.22
  Q 1000.05 538.33 999.85 550.18
  A 1.77 1.76 83.1 0 1 998.54 551.86
  Q 996.83 552.31 997.26 554.44
  A 0.68 0.68 0.0 0 0 997.93 554.99
  L 1008.52 554.99
  A 0.60 0.60 0.0 0 0 1009.12 554.36
  L 1009.00 552.20
  A 0.55 0.55 0.0 0 0 1008.42 551.68
  L 1006.87 551.76
  A 0.55 0.54 -1.5 0 1 1006.29 551.22
  L 1006.29 538.10
  A 1.11 1.10 76.2 0 1 1006.88 537.12
  C 1012.07 534.37 1013.80 537.00 1013.98 542.00
  Q 1014.14 546.42 1013.81 550.52
  A 1.51 1.47 71.9 0 1 1013.33 551.50
  Q 1012.78 552.00 1011.98 552.09
  A 0.75 0.75 0.0 0 0 1011.31 552.84
  L 1011.31 554.25
  A 0.70 0.70 0.0 0 0 1011.92 554.94
  L 1014.52 555.25"
/>
<path stroke="#93c48d" vector-effect="non-scaling-stroke" d="
  M 1014.52 555.25
  Q 1010.63 556.84 1005.05 557.57
  Q 1000.71 558.13 994.88 561.13
  C 991.43 562.91 987.65 566.72 984.96 568.65
  A 8.83 3.60 -33.5 0 1 983.92 569.34
  Q 978.52 572.58 965.77 574.08
  Q 947.66 576.20 930.22 575.06
  Q 927.38 574.88 923.35 574.09
  Q 920.05 573.45 916.56 572.73"
/>
<path stroke="#596d5c" vector-effect="non-scaling-stroke" d="
  M 916.56 572.73
  L 927.92 569.10"
/>
<path stroke="#93c48d" vector-effect="non-scaling-stroke" d="
  M 927.92 569.10
  Q 952.06 571.46 975.49 566.94
  Q 979.81 566.11 982.31 564.57
  A 2.07 2.07 0.0 0 0 982.72 561.36
  C 980.29 558.86 973.52 557.77 969.81 557.17
  Q 960.70 555.70 951.82 555.40
  A 0.84 0.84 0.0 0 1 951.04 554.79
  L 950.12 551.47"
/>
<path stroke="#596d5c" vector-effect="non-scaling-stroke" d="
  M 950.12 551.47
  C 958.00 534.22 950.62 520.26 932.51 516.43
  Q 923.34 514.49 912.62 514.72
  A 0.66 0.65 -2.3 0 1 911.95 514.11
  C 910.55 495.06 890.04 488.16 873.84 487.81
  A 0.01 0.01 0.0 0 1 873.83 487.80
  L 873.82 487.55
  A 0.23 0.23 0.0 0 1 874.02 487.30
  C 890.24 485.27 909.72 478.55 917.24 462.75
  C 921.56 453.67 920.76 442.35 912.63 435.77
  C 904.01 428.79 891.09 427.48 880.50 427.70
  Q 850.01 428.34 827.95 427.57
  A 0.93 0.92 6.7 0 0 827.02 428.30
  L 826.59 430.38
  A 0.63 0.63 0.0 0 0 827.21 431.14
  C 830.52 431.09 837.16 431.58 838.13 435.40
  C 839.09 439.22 837.34 445.18 836.46 448.45
  Q 828.57 477.83 813.07 536.29
  C 811.39 542.63 809.29 548.41 802.05 549.58
  Q 796.91 550.42 795.83 550.36
  A 1.02 1.02 0.0 0 0 794.77 551.17
  L 794.40 552.95
  A 0.78 0.77 5.3 0 0 795.18 553.88
  Q 828.48 553.15 839.00 553.68
  Q 852.06 554.34 864.58 553.45
  A 0.40 0.40 0.0 0 1 864.99 553.95
  L 852.29 601.65"
/>
<path stroke="#93c48d" vector-effect="non-scaling-stroke" d="
  M 852.29 601.65
  C 837.32 606.73 829.38 621.66 834.67 636.70"
/>
<path stroke="#596d5c" vector-effect="non-scaling-stroke" d="
  M 834.67 636.70
  L 829.10 637.35
  A 0.87 0.87 0.0 0 0 828.35 638.03
  L 827.88 640.27
  A 0.62 0.62 0.0 0 0 828.51 641.01
  L 836.37 640.73"
/>
<path stroke="#93c48d" vector-effect="non-scaling-stroke" d="
  M 836.37 640.73
  Q 840.57 647.85 847.84 651.55
  A 0.26 0.25 -31.2 0 1 847.72 652.03
  L 800.05 652.03
  A 0.29 0.28 -81.6 0 1 799.78 651.66
  Q 801.71 645.27 805.28 639.63
  A 0.19 0.19 0.0 0 0 805.23 639.37
  L 805.23 639.36
  A 0.19 0.18 -51.3 0 0 804.99 639.39
  Q 799.45 645.63 797.25 652.96
  A 0.87 0.86 8.3 0 0 798.08 654.07
  Q 963.71 654.03 1173.26 654.06
  Q 1174.18 654.06 1173.69 655.10"
/>
<path stroke="#3a5731" vector-effect="non-scaling-stroke" d="
  M 1032.72 592.03
  L 1024.05 593.79"
/>
<path stroke="#93c48d" vector-effect="non-scaling-stroke" d="
  M 1024.05 593.79
  L 1018.81 594.02"
/>
<path stroke="#3a5731" vector-effect="non-scaling-stroke" d="
  M 1018.81 594.02
  Q 1019.31 591.16 1015.07 592.80
  C 1013.33 593.46 1012.14 593.49 1010.50 593.60
  A 0.84 0.84 0.0 0 0 1009.76 594.15
  Q 1009.50 594.91 1009.50 595.79"
/>
<path stroke="#93c48d" vector-effect="non-scaling-stroke" d="
  M 1009.50 595.79
  L 1005.23 596.29"
/>
<path stroke="#3a5731" vector-effect="non-scaling-stroke" d="
  M 1005.23 596.29
  L 1005.13 592.93
  A 0.75 0.74 5.6 0 0 1004.55 592.23
  Q 1002.83 591.84 1001.70 592.75
  A 0.95 0.94 35.3 0 1 1000.79 592.90
  C 996.51 591.37 991.47 591.56 989.05 595.63
  C 986.82 599.38 988.22 603.46 992.28 605.18"
/>
<path stroke="#93c48d" vector-effect="non-scaling-stroke" d="
  M 992.28 605.18
  Q 991.30 606.29 991.16 608.03"
/>
<path stroke="#3a5731" vector-effect="non-scaling-stroke" d="
  M 991.16 608.03
  Q 990.06 607.44 988.83 607.72
  A 0.66 0.64 -5.7 0 0 988.31 608.34
  Q 988.25 611.23 988.38 614.11
  Q 988.44 615.25 989.74 615.32"
/>
<path stroke="#93c48d" vector-effect="non-scaling-stroke" d="
  M 989.74 615.32
  C 988.55 616.64 989.26 620.24 989.63 621.90
  A 0.57 0.56 83.8 0 1 989.08 622.59
  L 938.59 622.68"
/>
<path stroke="#3a5731" vector-effect="non-scaling-stroke" d="
  M 1014.52 555.25
  L 1022.38 555.04
  A 0.68 0.68 0.0 0 0 1023.04 554.33
  L 1022.92 552.23
  A 0.62 0.62 0.0 0 0 1022.27 551.64
  L 1020.96 551.72
  A 0.62 0.62 0.0 0 1 1020.31 551.07
  L 1020.46 547.09"
/>
<path stroke="#3a5731" vector-effect="non-scaling-stroke" d="
  M 950.12 551.47
  Q 942.02 563.89 927.92 569.10"
/>
<path stroke="#3a5731" vector-effect="non-scaling-stroke" d="
  M 916.56 572.73
  L 907.41 574.38
  A 0.21 0.21 0.0 0 0 907.44 574.79
  C 926.88 575.34 949.17 584.87 944.96 608.69
  Q 943.72 615.73 938.59 622.68"
/>
<path stroke="#596d5c" vector-effect="non-scaling-stroke" d="
  M 938.59 622.68
  Q 933.82 628.19 926.17 632.67"
/>
<path stroke="#3a5731" vector-effect="non-scaling-stroke" d="
  M 926.17 632.67
  Q 910.81 640.08 893.16 640.74"
/>
<path stroke="#596d5c" vector-effect="non-scaling-stroke" d="
  M 893.16 640.74
  L 882.40 641.03"
/>
<path stroke="#3a5731" vector-effect="non-scaling-stroke" d="
  M 882.40 641.03
  Q 858.77 640.05 836.37 640.73"
/>
<path stroke="#3a5731" vector-effect="non-scaling-stroke" d="
  M 834.67 636.70
  C 841.78 636.13 844.34 630.95 846.04 624.85
  Q 849.24 613.36 852.29 601.65"
/>
<path stroke="#3a5731" vector-effect="non-scaling-stroke" d="
  M 1084.03 615.45
  L 1081.28 614.54
  A 0.88 0.87 31.9 0 0 1080.39 614.74
  Q 1079.41 615.67 1077.66 615.26
  A 0.67 0.67 0.0 0 1 1077.13 614.62
  L 1077.08 607.42"
/>
<path stroke="#3a5731" vector-effect="non-scaling-stroke" d="
  M 1047.29 602.79
  L 1047.28 611.11
  A 0.63 0.63 0.0 0 0 1047.91 611.74
  L 1049.30 611.74
  A 0.68 0.68 0.0 0 1 1049.98 612.50
  Q 1049.88 613.39 1050.07 614.19
  A 0.65 0.65 0.0 0 1 1049.44 614.98
  L 1039.08 614.98
  A 0.68 0.67 -2.3 0 1 1038.40 614.36
  L 1038.25 612.47"
/>
<path stroke="#596d5c" vector-effect="non-scaling-stroke" d="
  M 1038.25 612.47
  Q 1038.50 611.93 1039.44 611.81
  Q 1040.52 611.67 1040.68 610.51
  Q 1041.35 605.47 1040.77 599.24
  A 3.50 3.49 -2.6 0 0 1037.29 596.07
  L 1036.73 596.07
  A 3.46 3.45 0.0 0 0 1033.27 599.52
  L 1033.27 611.23
  A 0.44 0.43 -0.0 0 0 1033.71 611.66
  L 1035.66 611.66
  A 0.42 0.42 0.0 0 1 1036.08 612.08
  L 1036.08 614.47
  A 0.55 0.54 0.0 0 1 1035.53 615.01
  L 1024.86 615.01
  A 0.55 0.55 0.0 0 1 1024.31 614.46
  L 1024.31 612.78
  A 0.77 0.77 0.0 0 1 1025.06 612.01
  Q 1026.86 611.96 1026.88 609.65
  Q 1026.96 600.12 1027.09 597.44
  A 0.53 0.53 0.0 0 0 1026.56 596.89
  L 1024.69 596.89
  A 0.64 0.63 -90.0 0 1 1024.06 596.25
  L 1024.05 593.79"
/>
<path stroke="#3a5731" vector-effect="non-scaling-stroke" d="
  M 1071.16 603.12
  L 1059.55 603.25
  A 0.57 0.57 0.0 0 0 1058.99 603.82
  C 1059.03 607.71 1060.52 611.86 1065.26 611.65
  Q 1069.00 611.49 1070.95 609.13
  A 1.12 1.12 0.0 0 1 1072.61 609.06
  L 1072.97 609.42
  A 1.37 1.36 -47.1 0 1 1073.03 611.25
  Q 1068.99 616.04 1062.75 615.66
  C 1055.16 615.20 1051.65 608.96 1052.57 601.93"
/>
<path stroke="#596d5c" vector-effect="non-scaling-stroke" d="
  M 1018.81 594.02
  L 1018.76 610.94
  A 0.75 0.74 -90.0 0 0 1019.50 611.69
  L 1020.87 611.69
  A 0.69 0.69 0.0 0 1 1021.56 612.38
  L 1021.56 614.30
  A 0.70 0.69 90.0 0 1 1020.87 615.00
  L 1010.28 615.00
  A 0.43 0.43 0.0 0 1 1009.85 614.57
  L 1009.85 612.67
  A 0.58 0.58 0.0 0 1 1010.37 612.09
  Q 1012.33 611.91 1012.41 609.44
  Q 1012.47 607.46 1012.53 597.41
  A 0.59 0.59 0.0 0 0 1011.89 596.81
  L 1010.22 596.93
  A 0.52 0.49 53.1 0 1 1009.93 596.88
  Q 1009.18 596.50 1009.50 595.79"
/>
<path stroke="#596d5c" vector-effect="non-scaling-stroke" d="
  M 1005.23 596.29
  L 1005.14 599.37
  A 0.72 0.71 86.7 0 1 1004.54 600.06
  Q 1003.59 600.22 1002.71 599.98
  A 0.98 0.97 89.4 0 1 1002.01 599.29
  L 1001.65 598.03"
/>
<path stroke="#3a5731" vector-effect="non-scaling-stroke" d="
  M 1001.65 598.03
  Q 999.82 594.90 995.75 595.16
  Q 993.91 595.28 993.33 596.65
  C 992.37 598.94 995.23 600.19 996.98 600.46"
/>
<path stroke="#596d5c" vector-effect="non-scaling-stroke" d="
  M 996.98 600.46
  C 1000.80 601.87 1005.47 603.30 1006.33 607.79
  C 1007.11 611.85 1004.05 614.90 1000.23 615.50
  Q 996.34 616.11 992.82 614.52
  A 0.87 0.87 0.0 0 0 991.90 614.64
  Q 990.99 615.40 989.74 615.32"
/>
<path stroke="#596d5c" vector-effect="non-scaling-stroke" d="
  M 991.16 608.03
  Q 993.01 612.65 998.26 612.56
  Q 1000.08 612.52 1000.79 611.46
  A 2.08 2.08 0.0 0 0 999.88 608.40
  Q 995.91 606.71 992.28 605.18"
/>
<path stroke="#93c48d" vector-effect="non-scaling-stroke" d="
  M 1038.25 612.47
  Q 1034.57 617.82 1034.04 620.32
  Q 1030.48 637.20 1042.81 648.16
  C 1044.36 649.53 1046.85 650.53 1048.17 651.70
  A 0.22 0.22 0.0 0 1 1048.02 652.09
  L 871.58 652.09
  A 0.30 0.30 0.0 0 1 871.45 651.52
  Q 878.82 648.03 882.40 641.03"
/>
<path stroke="#93c48d" vector-effect="non-scaling-stroke" d="
  M 893.16 640.74
  Q 894.27 641.01 894.37 641.28
  Q 894.83 642.45 896.11 642.46
  Q 958.28 642.53 1027.14 642.47
  A 0.21 0.20 90.0 0 0 1027.34 642.26
  L 1027.34 632.77
  A 0.26 0.25 0.0 0 0 1027.08 632.52
  L 926.17 632.67"
/>
<path stroke="#93c48d" vector-effect="non-scaling-stroke" d="
  M 996.98 600.46
  Q 998.93 598.68 1001.65 598.03"
/>
<path stroke="#596d5c" vector-effect="non-scaling-stroke" d="
  M 996.58 469.65
  L 996.58 457.93
  A 0.65 0.64 -5.5 0 0 995.81 457.30
  L 987.84 458.86
  A 0.71 0.71 0.0 0 0 987.26 459.56
  L 987.26 461.30
  A 0.65 0.65 0.0 0 0 987.91 461.95
  L 989.63 461.95
  A 0.70 0.70 0.0 0 1 990.33 462.66
  Q 990.18 480.33 990.29 485.00
  Q 990.33 486.86 989.25 487.60
  Q 987.91 488.52 987.89 488.56
  Q 987.44 489.32 987.54 490.55
  A 0.48 0.48 0.0 0 0 988.02 490.99
  L 998.81 490.99
  A 0.51 0.51 0.0 0 0 999.32 490.48
  L 999.32 488.24
  A 0.55 0.55 0.0 0 0 998.77 487.69
  L 996.94 487.69
  A 0.38 0.37 -0.0 0 1 996.56 487.32
  L 996.56 475.27
  A 3.20 3.19 0.0 0 1 999.76 472.08
  L 1000.22 472.08
  A 3.96 3.95 88.7 0 1 1004.17 475.86
  Q 1004.41 480.99 1004.27 485.28
  Q 1004.19 487.97 1002.50 487.96
  A 0.93 0.93 0.0 0 0 1001.57 488.89
  L 1001.57 490.19
  A 0.80 0.79 90.0 0 0 1002.36 490.99
  L 1012.62 490.99
  A 0.74 0.74 0.0 0 0 1013.36 490.25
  L 1013.36 488.32
  A 0.75 0.74 -5.4 0 0 1012.47 487.59
  L 1011.40 487.80
  A 0.71 0.70 -4.6 0 1 1010.56 487.09
  C 1010.71 482.48 1011.48 473.36 1008.69 470.17
  C 1005.38 466.40 1000.89 468.38 997.07 469.97
  A 0.36 0.35 -11.3 0 1 996.58 469.65"
/>
<path stroke="#596d5c" vector-effect="non-scaling-stroke" d="
  M 971.88 472.92
  Q 971.58 478.63 971.81 484.19
  Q 972.15 492.55 980.16 491.53
  Q 984.08 491.03 986.31 487.76
  A 1.40 1.39 -51.5 0 0 986.11 485.96
  L 985.75 485.63
  A 1.17 1.17 0.0 0 0 984.04 485.75
  C 982.28 487.95 978.48 488.68 978.23 484.68
  Q 978.00 481.02 978.17 472.61
  A 0.45 0.44 0.7 0 1 978.62 472.18
  L 983.24 472.18
  A 0.54 0.54 0.0 0 0 983.78 471.64
  L 983.78 469.15
  A 0.46 0.46 0.0 0 0 983.32 468.69
  L 978.73 468.69
  A 0.59 0.59 0.0 0 1 978.14 468.10
  L 978.14 463.68
  A 0.65 0.64 0.0 0 0 977.49 463.04
  L 975.64 463.04
  A 1.21 1.21 0.0 0 0 974.51 463.81
  Q 972.96 467.79 969.28 468.67
  A 0.69 0.69 0.0 0 0 968.76 469.34
  L 968.76 471.73
  A 0.66 0.65 -90.0 0 0 969.41 472.39
  L 971.37 472.39
  A 0.51 0.50 1.6 0 1 971.88 472.92"
/>
<path stroke="#596d5c" vector-effect="non-scaling-stroke" d="
  M 932.43 471.20
  L 932.43 469.13
  A 1.02 1.01 -9.9 0 0 931.07 468.18
  Q 927.24 469.56 923.95 469.60
  A 0.69 0.69 0.0 0 0 923.26 470.29
  L 923.26 472.42
  A 0.48 0.47 -0.0 0 0 923.74 472.89
  L 925.90 472.89
  A 0.51 0.50 -86.9 0 1 926.40 473.45
  Q 926.20 475.25 926.20 484.98
  Q 926.20 487.85 924.30 488.03
  A 0.84 0.83 -2.6 0 0 923.54 488.86
  L 923.54 490.37
  A 0.61 0.61 0.0 0 0 924.15 490.98
  L 934.54 490.98
  A 0.75 0.75 0.0 0 0 935.29 490.23
  L 935.29 488.40
  A 0.70 0.70 0.0 0 0 934.59 487.70
  L 933.13 487.70
  A 0.70 0.69 1.5 0 1 932.43 486.97
  Q 932.64 482.47 932.51 478.46
  Q 932.37 474.44 936.09 472.25
  A 0.58 0.58 0.0 0 1 936.93 472.54
  L 937.29 473.47
  A 1.40 1.37 5.2 0 0 937.85 474.13
  C 942.74 477.02 945.35 469.22 939.70 468.10
  Q 936.45 467.45 933.16 471.46
  A 0.41 0.41 0.0 0 1 932.43 471.20"
/>
<path stroke="#596d5c" vector-effect="non-scaling-stroke" d="
  M 957.2321 468.0278
  A 11.98 11.32 -81.3 0 0 944.2302 478.1577
  A 11.98 11.32 -81.3 0 0 953.6079 491.7122
  A 11.98 11.32 -81.3 0 0 966.6098 481.5823
  A 11.98 11.32 -81.3 0 0 957.2321 468.0278"
/>
<path stroke="#596d5c" vector-effect="non-scaling-stroke" d="
  M 1022.27 479.46
  A 0.40 0.39 -85.8 0 1 1022.66 479.12
  L 1036.35 479.12
  A 0.49 0.48 -90.0 0 0 1036.83 478.63
  Q 1036.82 471.46 1031.68 469.03
  C 1027.68 467.14 1022.45 467.84 1019.28 471.06
  C 1013.13 477.29 1014.71 489.80 1024.57 491.47
  Q 1031.59 492.66 1036.49 487.13
  A 1.04 1.03 -46.7 0 0 1036.45 485.71
  L 1035.79 485.05
  A 0.95 0.94 -43.9 0 0 1034.48 485.03
  C 1029.88 489.27 1023.91 488.78 1022.48 482.27
  Q 1022.13 480.65 1022.27 479.46"
/>
<path stroke="#596d5c" vector-effect="non-scaling-stroke" d="
  M 1048.95 471.19
  L 1048.95 469.12
  A 1.02 1.01 -9.9 0 0 1047.59 468.16
  Q 1043.76 469.54 1040.46 469.58
  A 0.69 0.69 0.0 0 0 1039.77 470.27
  L 1039.77 472.40
  A 0.48 0.47 0.1 0 0 1040.25 472.87
  L 1042.41 472.87
  A 0.51 0.50 -86.9 0 1 1042.91 473.43
  Q 1042.71 475.24 1042.70 484.98
  Q 1042.69 487.85 1040.79 488.03
  A 0.84 0.83 -2.6 0 0 1040.03 488.86
  L 1040.03 490.37
  A 0.61 0.61 0.0 0 0 1040.64 490.98
  L 1051.04 490.99
  A 0.75 0.75 0.0 0 0 1051.79 490.24
  L 1051.79 488.41
  A 0.70 0.70 0.0 0 0 1051.09 487.71
  L 1049.63 487.71
  A 0.70 0.69 1.6 0 1 1048.93 486.98
  Q 1049.15 482.47 1049.02 478.46
  Q 1048.88 474.43 1052.61 472.24
  A 0.58 0.58 0.0 0 1 1053.45 472.54
  L 1053.81 473.47
  A 1.40 1.38 5.3 0 0 1054.37 474.13
  C 1059.26 477.03 1061.89 469.22 1056.23 468.09
  Q 1052.98 467.44 1049.68 471.45
  A 0.41 0.41 0.0 0 1 1048.95 471.19"
/>
<path stroke="#596d5c" vector-effect="non-scaling-stroke" d="
  M 1064.87 490.85
  A 0.75 0.74 22.8 0 1 1065.83 490.46
  Q 1071.29 492.60 1075.20 491.03
  C 1078.85 489.57 1080.54 486.41 1079.32 482.63
  C 1077.98 478.45 1071.12 476.99 1067.93 475.62
  C 1065.75 474.69 1065.98 471.58 1068.44 471.26
  Q 1073.69 470.56 1075.31 475.27
  A 1.60 1.60 0.0 0 0 1078.42 474.75
  L 1078.42 468.85
  A 0.64 0.64 0.0 0 0 1077.89 468.22
  Q 1075.89 467.86 1074.94 468.80
  A 0.80 0.79 -56.5 0 1 1074.09 468.98
  C 1068.47 466.82 1061.83 468.28 1061.32 475.08
  C 1060.90 480.62 1068.61 482.49 1072.92 484.29
  A 2.26 1.83 17.6 0 1 1074.35 486.46
  Q 1073.99 488.44 1071.49 488.48
  Q 1066.24 488.54 1064.49 484.35
  A 1.51 1.51 0.0 0 0 1061.59 484.93
  L 1061.59 490.55
  A 0.74 0.73 4.6 0 0 1062.21 491.27
  Q 1064.53 491.64 1064.87 490.85"
/>
<path stroke="#596d5c" vector-effect="non-scaling-stroke" d="
  M 984.17 539.50
  Q 984.18 548.25 984.18 548.75
  Q 984.21 551.69 981.94 551.94
  A 1.13 1.12 86.9 0 0 980.94 553.06
  L 980.94 554.17
  A 0.81 0.81 0.0 0 0 981.75 554.98
  L 992.90 554.98
  A 0.95 0.95 0.0 0 0 993.85 554.03
  L 993.85 552.48
  A 1.01 1.01 0.0 0 0 992.65 551.49
  L 991.21 551.77
  A 0.51 0.51 0.0 0 1 990.60 551.27
  Q 990.61 544.84 990.61 539.25
  Q 990.60 530.50 990.60 529.99
  Q 990.57 527.05 992.84 526.80
  A 1.13 1.12 86.9 0 0 993.84 525.68
  L 993.84 524.57
  A 0.81 0.81 0.0 0 0 993.03 523.76
  L 981.88 523.76
  A 0.95 0.95 0.0 0 0 980.93 524.71
  L 980.93 526.26
  A 1.01 1.01 0.0 0 0 982.13 527.25
  L 983.57 526.97
  A 0.51 0.51 0.0 0 1 984.18 527.47
  Q 984.17 533.90 984.17 539.50"
/>
<path stroke="#596d5c" vector-effect="non-scaling-stroke" d="
  M 1102.13 614.84
  A 0.74 0.74 0.0 0 1 1103.08 614.45
  Q 1108.54 616.58 1112.45 615.01
  C 1116.09 613.54 1117.77 610.38 1116.55 606.61
  C 1115.20 602.43 1108.35 600.99 1105.16 599.62
  C 1102.98 598.70 1103.20 595.59 1105.66 595.27
  Q 1110.90 594.56 1112.53 599.26
  A 1.60 1.60 0.0 0 0 1115.63 598.73
  L 1115.62 592.84
  A 0.64 0.64 0.0 0 0 1115.09 592.21
  Q 1113.09 591.85 1112.15 592.80
  A 0.80 0.78 -56.6 0 1 1111.30 592.98
  C 1105.68 590.83 1099.05 592.30 1098.55 599.09
  C 1098.14 604.63 1105.85 606.48 1110.16 608.28
  A 2.26 1.83 17.5 0 1 1111.59 610.44
  Q 1111.23 612.42 1108.74 612.46
  Q 1103.49 612.53 1101.73 608.35
  A 1.51 1.51 0.0 0 0 1098.84 608.94
  L 1098.85 614.55
  A 0.74 0.73 4.5 0 0 1099.47 615.27
  Q 1101.79 615.63 1102.13 614.84"
/>
<path stroke="#93c48d" vector-effect="non-scaling-stroke" d="
  M 763.38 626.13
  C 757.73 633.56 754.94 643.89 753.23 653.05
  A 0.96 0.96 0.0 0 0 754.17 654.18
  L 754.81 654.18
  A 1.34 1.34 0.0 0 0 756.15 652.95
  Q 757.40 638.53 763.59 626.26
  A 0.12 0.12 0.0 0 0 763.38 626.13"
/>
<path stroke="#93c48d" vector-effect="non-scaling-stroke" d="
  M 784.36 630.03
  A 0.49 0.49 0.0 0 0 783.72 630.26
  Q 778.24 641.12 776.28 653.70
  A 0.21 0.21 0.0 0 0 776.49 653.94
  L 779.05 653.94
  A 0.27 0.26 1.1 0 0 779.32 653.69
  Q 780.17 641.92 784.64 630.68
  A 0.50 0.49 22.4 0 0 784.37 630.04
  L 784.36 630.03"
/>
<path stroke="#93c48d" vector-effect="non-scaling-stroke" d="
  M 772.95 631.60
  A 0.16 0.15 -54.7 0 0 772.74 631.64
  Q 765.50 641.29 763.24 653.36
  A 0.57 0.57 0.0 0 0 763.80 654.04
  L 765.48 654.04
  A 0.74 0.74 0.0 0 0 766.22 653.37
  Q 767.18 642.16 773.02 631.89
  A 0.21 0.21 0.0 0 0 772.95 631.61
  L 772.95 631.60"
/>
<path stroke="#93c48d" vector-effect="non-scaling-stroke" d="
  M 795.92 635.82
  A 0.26 0.25 -54.0 0 0 795.57 635.88
  Q 789.66 643.74 787.80 653.16
  A 0.85 0.85 0.0 0 0 788.63 654.18
  L 789.29 654.18
  A 1.14 1.14 0.0 0 0 790.42 653.20
  Q 791.75 643.76 796.09 636.22
  A 0.27 0.27 0.0 0 0 796.01 635.87
  L 795.92 635.82"
/>
<path stroke="#596d5c" vector-effect="non-scaling-stroke" d="
  M 894.12 680.95
  L 894.86 678.15
  A 1.05 1.04 -82.4 0 1 895.87 677.37
  L 901.40 677.37
  A 1.11 1.10 -18.1 0 1 902.29 677.82
  Q 904.21 680.46 901.89 682.26
  A 0.96 0.96 0.0 0 0 902.48 683.98
  L 909.77 683.98
  A 0.58 0.58 0.0 0 0 910.35 683.40
  L 910.35 682.18
  A 0.55 0.55 0.0 0 0 909.80 681.63
  L 909.35 681.63
  A 0.89 0.87 79.2 0 1 908.53 681.06
  L 901.06 661.82
  A 1.59 1.59 0.0 0 0 898.08 661.86
  Q 892.61 677.36 891.37 680.13
  Q 890.88 681.23 889.50 681.97
  A 1.08 1.08 0.0 0 0 890.01 684.00
  L 895.29 684.00
  A 0.75 0.75 0.0 0 0 896.04 683.25
  L 896.04 682.29
  A 0.77 0.77 0.0 0 0 895.27 681.52
  L 894.56 681.52
  A 0.45 0.45 0.0 0 1 894.12 680.95"
/>
<path stroke="#596d5c" vector-effect="non-scaling-stroke" d="
  M 992.36 680.95
  L 993.11 678.15
  A 1.05 1.04 -82.3 0 1 994.12 677.37
  L 999.65 677.38
  A 1.11 1.10 -18.0 0 1 1000.54 677.83
  Q 1002.45 680.47 1000.13 682.27
  A 0.96 0.96 0.0 0 0 1000.72 683.99
  L 1008.01 684.00
  A 0.58 0.58 0.0 0 0 1008.59 683.42
  L 1008.59 682.20
  A 0.55 0.55 0.0 0 0 1008.04 681.65
  L 1007.59 681.65
  A 0.89 0.87 79.3 0 1 1006.77 681.08
  L 999.34 661.83
  A 1.59 1.59 0.0 0 0 996.36 661.86
  Q 990.86 677.35 989.61 680.12
  Q 989.12 681.22 987.74 681.96
  A 1.08 1.08 0.0 0 0 988.25 683.99
  L 993.53 684.00
  A 0.75 0.75 0.0 0 0 994.28 683.25
  L 994.28 682.29
  A 0.77 0.77 0.0 0 0 993.51 681.52
  L 992.80 681.52
  A 0.45 0.45 0.0 0 1 992.36 680.95"
/>
<path stroke="#596d5c" vector-effect="non-scaling-stroke" d="
  M 982.61 662.19
  Q 973.68 658.84 968.78 665.82
  C 965.85 670.01 965.86 676.88 969.38 680.82
  C 974.04 686.03 982.15 685.78 986.86 679.90
  A 0.78 0.78 0.0 0 0 986.81 678.88
  L 986.53 678.60
  A 0.98 0.97 -46.7 0 0 985.09 678.65
  C 981.76 682.54 975.22 683.62 972.80 677.95
  Q 970.55 672.66 972.68 667.46
  C 974.92 661.99 982.08 661.68 983.49 667.94
  A 1.15 1.15 0.0 0 0 985.76 667.68
  L 985.76 661.93
  A 0.75 0.75 0.0 0 0 985.14 661.19
  Q 983.86 660.96 983.39 661.88
  A 0.62 0.62 0.0 0 1 982.61 662.19"
/>
<path stroke="#596d5c" vector-effect="non-scaling-stroke" d="
  M 877.69 681.01
  L 877.82 664.87
  A 0.72 0.68 -29.4 0 1 877.94 664.48
  Q 878.35 663.85 879.41 663.77
  A 0.69 0.68 87.8 0 0 880.04 663.08
  L 880.04 662.06
  A 0.52 0.51 90.0 0 0 879.53 661.54
  L 871.46 661.54
  A 0.65 0.64 90.0 0 0 870.82 662.19
  L 870.82 663.35
  A 0.55 0.55 0.0 0 0 871.37 663.90
  L 872.56 663.90
  A 0.70 0.69 1.2 0 1 873.26 664.62
  Q 873.02 672.08 873.18 679.13
  Q 873.23 681.40 871.43 682.07
  A 0.99 0.99 0.0 0 0 871.77 683.99
  L 887.36 683.99
  A 0.70 0.70 0.0 0 0 888.06 683.28
  L 887.97 676.90
  A 0.92 0.91 53.9 0 0 886.19 676.62
  C 885.23 679.03 885.53 681.66 881.89 681.52
  C 881.01 681.49 879.28 681.69 878.24 681.60
  A 0.59 0.59 0.0 0 1 877.69 681.01"
/>
<path stroke="#596d5c" vector-effect="non-scaling-stroke" d="
  M 919.20 677.11
  Q 917.48 671.16 916.14 665.61
  Q 915.95 664.84 916.25 664.38
  Q 916.50 664.00 917.26 663.77
  Q 917.90 663.58 918.10 663.08
  Q 918.66 661.63 917.43 661.54
  Q 917.41 661.54 917.39 661.54
  L 909.54 661.54
  A 1.14 1.14 0.0 0 0 909.25 663.79
  L 909.73 663.92
  A 1.23 1.23 0.0 0 1 910.58 664.72
  L 916.69 683.19
  A 1.93 1.92 43.2 0 0 920.38 683.08
  L 924.13 668.87
  A 0.19 0.19 0.0 0 1 924.50 668.86
  L 929.09 683.22
  A 1.81 1.81 0.0 0 0 932.55 683.16
  Q 932.62 682.94 937.50 667.04
  Q 938.27 664.56 940.36 663.66
  A 1.11 1.10 33.3 0 0 939.92 661.54
  L 934.37 661.54
  A 0.80 0.80 0.0 0 0 933.57 662.34
  L 933.57 663.15
  A 0.77 0.77 0.0 0 0 934.34 663.92
  L 935.25 663.92
  A 0.27 0.27 0.0 0 1 935.51 664.26
  L 932.07 677.30
  A 0.18 0.18 0.0 0 1 931.73 677.31
  L 927.31 662.57
  A 1.98 1.97 -46.0 0 0 923.51 662.64
  L 919.70 677.10
  A 0.26 0.26 0.0 0 1 919.20 677.11"
/>
<path stroke="#596d5c" vector-effect="non-scaling-stroke" d="
  M 959.68 676.47
  A 0.16 0.16 0.0 0 1 959.39 676.57
  L 948.05 662.03
  A 1.30 1.28 70.5 0 0 947.04 661.54
  L 943.23 661.54
  A 0.72 0.72 0.0 0 0 942.51 662.26
  L 942.51 663.35
  A 0.59 0.58 -0.0 0 0 943.10 663.93
  L 944.23 663.93
  A 0.67 0.67 0.0 0 1 944.90 664.60
  Q 944.84 672.40 944.88 679.76
  Q 944.89 681.66 943.42 681.85
  A 1.08 1.08 0.0 0 0 943.55 684.01
  L 949.32 684.01
  A 0.71 0.70 -90.0 0 0 950.02 683.30
  L 950.02 682.34
  A 0.73 0.73 0.0 0 0 949.29 681.61
  L 948.09 681.61
  A 0.46 0.46 0.0 0 1 947.63 681.15
  L 947.63 669.36
  A 0.16 0.16 0.0 0 1 947.91 669.26
  L 959.30 683.84
  A 1.20 1.19 71.2 0 0 960.25 684.31
  L 961.94 684.31
  A 0.49 0.48 -90.0 0 0 962.42 683.82
  Q 962.41 674.53 962.40 666.25
  Q 962.40 663.95 963.76 663.74
  A 1.28 1.27 -2.3 0 0 964.83 662.59
  L 964.84 662.56
  A 0.96 0.95 -88.3 0 0 963.88 661.54
  L 958.05 661.58
  A 0.79 0.79 0.0 0 0 957.27 662.37
  L 957.27 663.22
  A 0.73 0.72 90.0 0 0 957.99 663.95
  L 959.13 663.95
  A 0.55 0.54 -0.0 0 1 959.68 664.49
  L 959.68 676.47"
/>
<path stroke="#596d5c" vector-effect="non-scaling-stroke" d="
  M 1023.91 674.22
  Q 1027.19 672.89 1028.08 670.60
  C 1029.63 666.59 1027.64 662.52 1023.37 661.89
  Q 1018.61 661.19 1010.81 661.65
  A 0.55 0.55 0.0 0 0 1010.29 662.20
  L 1010.29 663.31
  A 0.60 0.60 0.0 0 0 1010.89 663.91
  L 1011.94 663.91
  A 0.74 0.74 0.0 0 1 1012.68 664.65
  Q 1012.64 676.13 1012.60 679.69
  C 1012.58 681.05 1012.09 681.61 1010.90 681.95
  A 1.04 1.04 0.0 0 0 1011.18 683.99
  L 1019.15 683.99
  A 0.80 0.79 -90.0 0 0 1019.94 683.19
  L 1019.94 682.28
  A 0.71 0.71 0.0 0 0 1019.23 681.57
  L 1017.84 681.57
  A 0.59 0.58 90.0 0 1 1017.26 680.98
  L 1017.26 675.94
  A 0.96 0.96 0.0 0 1 1018.97 675.35
  Q 1020.61 677.45 1023.35 682.05
  C 1024.74 684.38 1027.27 684.46 1029.63 683.92
  A 1.03 1.03 0.0 0 0 1029.93 682.03
  L 1028.80 681.35
  A 2.11 2.00 -1.5 0 1 1028.21 680.82
  L 1023.73 674.86
  A 0.42 0.42 0.0 0 1 1023.91 674.22"
/>
<path stroke="#596d5c" vector-effect="non-scaling-stroke" d="
  M 1039.30 670.79
  L 1039.30 664.99
  A 1.22 1.22 0.0 0 1 1040.32 663.79
  Q 1045.97 662.82 1046.56 667.12
  A 0.99 0.99 0.0 0 0 1048.51 667.17
  Q 1048.63 666.57 1048.36 662.14
  A 0.64 0.64 0.0 0 0 1047.72 661.54
  L 1033.07 661.54
  A 0.85 0.84 90.0 0 0 1032.23 662.39
  L 1032.23 663.12
  A 0.80 0.80 0.0 0 0 1033.03 663.92
  L 1034.13 663.92
  A 0.60 0.60 0.0 0 1 1034.73 664.57
  Q 1034.58 666.28 1034.68 679.38
  Q 1034.69 681.49 1032.94 681.97
  A 1.06 1.03 -33.3 0 0 1032.54 683.79
  Q 1032.72 683.93 1033.09 683.94
  Q 1037.51 684.05 1048.93 683.95
  A 0.46 0.45 -0.7 0 0 1049.38 683.50
  L 1049.38 677.59
  A 0.75 0.75 0.0 0 0 1048.63 676.84
  L 1048.31 676.84
  A 0.95 0.95 0.0 0 0 1047.38 677.59
  L 1047.03 679.29
  A 2.64 2.64 0.0 0 1 1044.59 681.39
  L 1039.75 681.65
  A 0.50 0.49 88.4 0 1 1039.23 681.15
  L 1039.23 674.10
  A 0.66 0.66 0.0 0 1 1039.88 673.44
  Q 1043.31 673.35 1043.10 675.15
  A 1.08 1.08 0.0 0 0 1044.17 676.35
  L 1044.59 676.35
  A 0.78 0.78 0.0 0 0 1045.37 675.57
  L 1045.37 669.27
  A 0.92 0.92 0.0 0 0 1044.45 668.35
  L 1043.83 668.35
  A 0.81 0.80 -1.7 0 0 1043.02 669.20
  L 1043.10 670.71
  A 0.58 0.57 -1.4 0 1 1042.52 671.31
  L 1039.83 671.31
  A 0.53 0.52 0.0 0 1 1039.30 670.79"
/>
<path stroke="#596d5c" vector-effect="non-scaling-stroke" d="
  M 854.70 486.14
  A 0.47 0.47 0.0 0 0 855.11 486.72
  Q 861.76 487.32 867.74 486.03
  C 879.26 483.54 886.93 472.85 889.92 461.91
  C 893.07 450.40 894.61 427.98 875.09 431.37
  C 868.70 432.48 867.41 438.04 865.97 443.46
  Q 858.37 472.19 854.70 486.14"
/>
<path stroke="#596d5c" vector-effect="non-scaling-stroke" d="
  M 860.53 515.36
  A 0.69 0.69 0.0 0 1 861.21 514.80
  L 881.64 514.80
  A 0.44 0.44 0.0 0 0 882.08 514.39
  Q 882.47 507.81 880.72 502.41
  C 876.68 489.98 866.12 489.39 854.29 489.90
  A 0.74 0.73 -83.5 0 0 853.61 490.45
  Q 849.13 506.64 841.03 538.27
  C 839.52 544.17 839.90 549.60 847.31 549.82
  C 854.12 550.02 862.67 548.77 867.16 544.49
  A 2.28 2.25 -14.0 0 0 867.77 543.49
  Q 869.66 536.93 871.20 530.23
  C 871.97 526.88 872.93 521.32 869.48 519.76
  Q 865.59 518.00 860.70 518.18
  A 0.60 0.60 0.0 0 1 860.09 517.46
  L 860.53 515.36"
/>
<path stroke="#3a5731" vector-effect="non-scaling-stroke" d="
  M 889.26 573.61
  Q 899.45 574.91 908.10 570.45"
/>
<path stroke="#596d5c" vector-effect="non-scaling-stroke" d="
  M 908.10 570.45
  Q 910.74 569.05 913.32 566.29"
/>
<path stroke="#3a5731" vector-effect="non-scaling-stroke" d="
  M 913.32 566.29
  Q 917.16 562.93 919.87 557.73"
/>
<path stroke="#596d5c" vector-effect="non-scaling-stroke" d="
  M 919.87 557.73
  Q 927.03 544.14 924.59 528.83
  Q 922.93 518.45 912.51 518.08
  A 0.63 0.62 3.4 0 0 911.86 518.65
  Q 910.61 531.27 901.02 539.76
  Q 899.87 540.77 896.53 543.31
  A 2.17 2.10 79.6 0 0 895.76 544.47
  L 888.16 573.25
  A 0.40 0.40 0.0 0 0 888.32 573.68
  Q 888.73 573.96 889.26 573.61"
/>
<path stroke="#93c48d" vector-effect="non-scaling-stroke" d="
  M 919.87 557.73
  Q 913.25 557.96 908.25 560.82
  A 1.97 1.97 0.0 0 0 907.84 563.92
  Q 909.71 565.79 913.32 566.29"
/>
<path stroke="#93c48d" vector-effect="non-scaling-stroke" d="
  M 908.10 570.45
  Q 899.72 568.32 890.81 572.11
  Q 889.31 572.75 889.26 573.61"
/>
<path stroke="#596d5c" vector-effect="non-scaling-stroke" d="
  M 881.45 598.66
  L 878.80 609.42"
/>
<path stroke="#3a5731" vector-effect="non-scaling-stroke" d="
  M 878.80 609.42
  Q 875.75 619.19 874.12 627.79
  C 873.47 631.29 873.66 635.28 877.73 636.29
  Q 881.34 637.18 884.85 636.80"
/>
<path stroke="#596d5c" vector-effect="non-scaling-stroke" d="
  M 884.85 636.80
  Q 899.61 636.07 908.54 623.78"
/>
<path stroke="#3a5731" vector-effect="non-scaling-stroke" d="
  M 908.54 623.78
  Q 918.74 608.09 914.55 590.23
  Q 912.64 582.08 904.53 578.49
  C 899.94 576.47 893.02 576.68 887.70 576.95
  A 0.74 0.73 -83.5 0 0 887.02 577.50
  L 881.45 598.66"
/>
<path stroke="#93c48d" vector-effect="non-scaling-stroke" d="
  M 908.54 623.78
  L 898.93 623.02
  A 1.23 1.22 -5.0 0 1 897.84 622.11
  Q 894.00 607.31 881.45 598.66"
/>
<path stroke="#93c48d" vector-effect="non-scaling-stroke" d="
  M 884.85 636.80
  Q 885.61 633.89 885.98 631.27
  Q 887.80 618.17 878.80 609.42"
/>
<path stroke="#93c48d" vector-effect="non-scaling-stroke" d="
  M 1133.95 471.77
  A 0.43 0.43 0.0 0 0 1133.54 471.90
  L 1066.99 543.40
  A 0.43 0.43 0.0 0 0 1066.88 543.71
  L 1067.67 558.30
  A 0.43 0.43 0.0 0 0 1068.40 558.58
  L 1150.99 475.99
  A 0.43 0.43 0.0 0 0 1150.77 475.27
  L 1133.95 471.77"
/>
<path stroke="#3a5731" vector-effect="non-scaling-stroke" d="
  M 1015.9788 580.9007
  A 3.71 3.35 -91.1 0 0 1012.7006 584.6743
  A 3.71 3.35 -91.1 0 0 1016.1212 588.3193
  A 3.71 3.35 -91.1 0 0 1019.3994 584.5457
  A 3.71 3.35 -91.1 0 0 1015.9788 580.9007"
/>
<path stroke="#3a5731" vector-effect="non-scaling-stroke" d="
  M 976.23 597.35
  L 976.23 607.87
  A 3.67 3.67 0.0 0 1 973.03 611.51
  L 972.51 611.58
  A 3.31 3.31 0.0 0 1 968.77 608.30
  L 968.77 593.05
  A 0.81 0.81 0.0 0 0 967.80 592.25
  L 960.02 593.76
  A 0.85 0.84 84.6 0 0 959.34 594.59
  L 959.34 595.96
  A 0.91 0.91 0.0 0 0 960.25 596.87
  L 961.88 596.87
  A 0.65 0.65 0.0 0 1 962.53 597.53
  C 962.40 602.35 961.03 613.50 966.81 615.24
  Q 971.75 616.72 976.11 612.97
  A 0.33 0.33 0.0 0 1 976.66 613.22
  L 976.66 614.26
  A 0.72 0.72 0.0 0 0 977.38 614.98
  L 984.58 614.98
  A 0.72 0.71 -0.0 0 0 985.30 614.27
  L 985.30 612.21
  A 0.51 0.50 0.0 0 0 984.79 611.71
  L 983.12 611.71
  A 0.60 0.59 90.0 0 1 982.53 611.11
  L 982.53 592.84
  A 0.63 0.63 0.0 0 0 981.78 592.22
  L 973.95 593.74
  A 0.91 0.90 -5.9 0 0 973.22 594.62
  L 973.22 596.03
  A 0.84 0.83 -0.0 0 0 974.06 596.86
  L 975.74 596.86
  A 0.49 0.49 0.0 0 1 976.23 597.35"
/>
<path stroke="#596d5c" vector-effect="non-scaling-stroke" d="
  M 955.0735 470.9260
  A 8.91 4.76 -92.1 0 0 950.6432 480.0044
  A 8.91 4.76 -92.1 0 0 955.7265 488.7340
  A 8.91 4.76 -92.1 0 0 960.1568 479.6556
  A 8.91 4.76 -92.1 0 0 955.0735 470.9260"
/>
<path stroke="#596d5c" vector-effect="non-scaling-stroke" d="
  M 1022.94 476.16
  L 1030.54 476.18
  A 0.22 0.22 0.0 0 0 1030.76 475.96
  L 1030.76 475.78
  A 4.68 3.92 -89.8 0 0 1026.86 471.09
  L 1026.66 471.09
  A 4.68 3.92 -89.8 0 0 1022.72 475.76
  L 1022.72 475.94
  A 0.22 0.22 0.0 0 0 1022.94 476.16"
/>
<path stroke="#596d5c" vector-effect="non-scaling-stroke" d="
  M 1059.78 600.15
  L 1067.24 600.13
  A 0.28 0.28 0.0 0 0 1067.52 599.85
  L 1067.52 599.67
  A 4.56 3.95 89.8 0 0 1063.55 595.12
  L 1063.43 595.12
  A 4.56 3.95 89.8 0 0 1059.50 599.69
  L 1059.50 599.87
  A 0.28 0.28 0.0 0 0 1059.78 600.15"
/>
<path stroke="#596d5c" vector-effect="non-scaling-stroke" d="
  M 898.73 675.02
  Q 900.30 674.99 900.77 674.93
  A 0.48 0.48 0.0 0 0 901.16 674.29
  L 898.73 667.41
  A 0.16 0.03 72.2 0 0 898.66 667.29
  Q 898.62 667.28 898.58 667.28
  Q 898.56 667.28 898.52 667.29
  A 0.16 0.03 -74.3 0 0 898.45 667.42
  L 896.27 674.38
  A 0.48 0.48 0.0 0 0 896.68 675.01
  Q 897.15 675.05 898.73 675.02"
/>
<path stroke="#596d5c" vector-effect="non-scaling-stroke" d="
  M 996.97 675.02
  Q 998.53 675.01 999.00 674.96
  A 0.48 0.48 0.0 0 0 999.40 674.33
  L 997.06 667.46
  A 0.16 0.03 72.9 0 0 996.99 667.34
  Q 996.95 667.32 996.92 667.32
  Q 996.89 667.32 996.86 667.34
  A 0.16 0.03 -73.6 0 0 996.79 667.46
  L 994.53 674.36
  A 0.48 0.48 0.0 0 0 994.94 674.99
  Q 995.40 675.03 996.97 675.02"
/>
<path stroke="#596d5c" vector-effect="non-scaling-stroke" d="
  M 1017.34 664.74
  L 1017.30 671.96
  A 0.96 0.96 0.0 0 0 1018.26 672.93
  L 1019.82 672.94
  A 3.97 3.96 -89.7 0 0 1023.80 668.99
  L 1023.80 667.79
  A 3.97 3.96 -89.7 0 0 1019.86 663.80
  L 1018.30 663.79
  A 0.96 0.96 0.0 0 0 1017.34 664.74"
/>
</g>
<path fill="#ffffff" d="
  M 1920.00 0.00
  L 1920.00 1080.00
  L 0.00 1080.00
  L 0.00 0.00
  L 1920.00 0.00
  Z
  M 1210.24 540.11
  A 250.15 250.15 0.0 0 0 960.09 289.96
  A 250.15 250.15 0.0 0 0 709.94 540.11
  A 250.15 250.15 0.0 0 0 960.09 790.26
  A 250.15 250.15 0.0 0 0 1210.24 540.11
  Z"
/>
<path fill="#000000" d="
  M 1210.24 540.11
  A 250.15 250.15 0.0 0 1 960.09 790.26
  A 250.15 250.15 0.0 0 1 709.94 540.11
  A 250.15 250.15 0.0 0 1 960.09 289.96
  A 250.15 250.15 0.0 0 1 1210.24 540.11
  Z
  M 1173.69 655.10
  A 24.48 1.81 -62.5 0 0 1175.30 652.04
  A 242.73 242.65 56.0 0 0 1201.57 516.47
  A 242.86 242.71 28.1 0 0 1173.64 424.82
  A 242.54 242.54 0.0 0 0 1114.88 353.12
  A 242.73 242.73 0.0 0 0 1005.22 301.53
  A 171.04 120.76 8.2 0 0 981.26 298.21
  A 243.18 242.58 44.5 0 0 935.50 298.52
  A 168.64 118.08 -8.5 0 0 911.92 302.09
  A 242.70 242.61 -67.8 0 0 823.69 339.16
  A 242.70 242.70 0.0 0 0 737.29 443.49
  A 242.77 242.71 -33.5 0 0 717.28 542.00
  A 243.63 243.07 -51.0 0 0 722.02 587.74
  A 242.78 242.73 -73.3 0 0 788.87 712.13
  A 243.09 242.99 84.0 0 0 827.45 743.33
  A 242.73 242.72 -28.5 0 0 960.76 782.71
  A 242.74 242.71 28.0 0 0 1095.13 741.62
  A 242.77 242.73 -2.8 0 0 1173.69 655.10
  Z"
/>
<path fill="#b1d9b7" d="
  M 1175.30 652.04
  L 1071.86 652.06
  A 0.21 0.21 0.0 0 1 1071.76 651.67
  Q 1089.02 641.62 1085.81 621.72
  Q 1085.68 620.93 1084.82 618.61
  Q 1084.24 617.08 1084.03 615.45
  C 1089.68 616.46 1096.31 614.20 1095.01 607.35
  C 1094.19 602.98 1088.33 601.39 1084.32 600.00
  C 1082.38 599.31 1081.17 597.80 1082.48 595.97
  A 1.47 1.46 -78.4 0 1 1083.37 595.38
  Q 1088.86 594.14 1090.93 599.62
  A 0.72 0.70 -9.9 0 0 1091.60 600.08
  L 1093.43 600.08
  A 0.49 0.49 0.0 0 0 1093.92 599.59
  L 1093.92 592.93
  A 0.73 0.72 -83.5 0 0 1093.36 592.22
  Q 1091.58 591.81 1090.41 592.76
  A 0.90 0.89 -54.3 0 1 1089.53 592.91
  C 1083.42 590.66 1076.91 592.52 1076.72 599.90
  A 2.58 2.50 35.1 0 0 1076.93 601.00
  C 1078.76 605.41 1084.47 606.51 1087.76 607.99
  Q 1089.17 608.63 1089.65 609.53
  A 1.96 1.81 -19.0 0 1 1088.22 612.20
  Q 1082.42 613.36 1079.94 608.24
  A 0.87 0.87 0.0 0 0 1079.29 607.76
  L 1077.08 607.42
  L 1071.16 603.12
  L 1072.94 602.96
  A 0.56 0.55 89.4 0 0 1073.44 602.44
  Q 1073.81 596.30 1069.42 593.63
  C 1062.40 589.34 1053.86 593.62 1052.57 601.93
  Q 1050.82 601.82 1049.08 602.82
  Q 1048.15 603.36 1047.29 602.79
  C 1047.58 597.44 1046.35 591.72 1039.72 592.10
  Q 1036.65 592.28 1033.93 594.03
  A 0.41 0.41 0.0 0 1 1033.33 593.82
  L 1032.72 592.03
  L 1068.61 586.37
  A 0.63 0.62 83.8 0 0 1069.13 585.72
  L 1068.16 567.89
  A 3.01 2.97 -24.0 0 1 1069.06 565.60
  L 1167.88 468.86
  A 0.56 0.55 -64.2 0 0 1167.55 467.91
  Q 1148.35 466.06 1131.00 464.47
  Q 1129.23 464.31 1127.84 465.84
  Q 1086.77 510.93 1067.06 532.41
  A 0.46 0.46 0.0 0 1 1066.26 532.12
  L 1065.76 522.90
  A 0.48 0.48 0.0 0 0 1065.13 522.48
  Q 1055.56 525.82 1047.91 528.42
  Q 1031.82 533.91 1020.46 547.09
  C 1020.18 539.96 1021.16 529.15 1009.84 532.64
  Q 1007.95 533.22 1006.75 534.18
  A 0.38 0.37 -18.0 0 1 1006.14 533.87
  Q 1006.20 532.45 1005.56 532.14
  A 0.72 0.71 47.7 0 0 1004.99 532.11
  Q 1001.10 533.61 997.66 533.59
  A 0.71 0.71 0.0 0 0 996.95 534.34
  L 997.07 536.54
  A 0.44 0.43 86.1 0 0 997.53 536.95
  L 999.69 536.83
  A 0.38 0.38 0.0 0 1 1000.09 537.22
  Q 1000.05 538.33 999.85 550.18
  A 1.77 1.76 83.1 0 1 998.54 551.86
  Q 996.83 552.31 997.26 554.44
  A 0.68 0.68 0.0 0 0 997.93 554.99
  L 1008.52 554.99
  A 0.60 0.60 0.0 0 0 1009.12 554.36
  L 1009.00 552.20
  A 0.55 0.55 0.0 0 0 1008.42 551.68
  L 1006.87 551.76
  A 0.55 0.54 -1.5 0 1 1006.29 551.22
  L 1006.29 538.10
  A 1.11 1.10 76.2 0 1 1006.88 537.12
  C 1012.07 534.37 1013.80 537.00 1013.98 542.00
  Q 1014.14 546.42 1013.81 550.52
  A 1.51 1.47 71.9 0 1 1013.33 551.50
  Q 1012.78 552.00 1011.98 552.09
  A 0.75 0.75 0.0 0 0 1011.31 552.84
  L 1011.31 554.25
  A 0.70 0.70 0.0 0 0 1011.92 554.94
  L 1014.52 555.25
  Q 1010.63 556.84 1005.05 557.57
  Q 1000.71 558.13 994.88 561.13
  C 991.43 562.91 987.65 566.72 984.96 568.65
  A 8.83 3.60 -33.5 0 1 983.92 569.34
  Q 978.52 572.58 965.77 574.08
  Q 947.66 576.20 930.22 575.06
  Q 927.38 574.88 923.35 574.09
  Q 920.05 573.45 916.56 572.73
  L 927.92 569.10
  Q 952.06 571.46 975.49 566.94
  Q 979.81 566.11 982.31 564.57
  A 2.07 2.07 0.0 0 0 982.72 561.36
  C 980.29 558.86 973.52 557.77 969.81 557.17
  Q 960.70 555.70 951.82 555.40
  A 0.84 0.84 0.0 0 1 951.04 554.79
  L 950.12 551.47
  C 958.00 534.22 950.62 520.26 932.51 516.43
  Q 923.34 514.49 912.62 514.72
  A 0.66 0.65 -2.3 0 1 911.95 514.11
  C 910.55 495.06 890.04 488.16 873.84 487.81
  A 0.01 0.01 0.0 0 1 873.83 487.80
  L 873.82 487.55
  A 0.23 0.23 0.0 0 1 874.02 487.30
  C 890.24 485.27 909.72 478.55 917.24 462.75
  C 921.56 453.67 920.76 442.35 912.63 435.77
  C 904.01 428.79 891.09 427.48 880.50 427.70
  Q 850.01 428.34 827.95 427.57
  A 0.93 0.92 6.7 0 0 827.02 428.30
  L 826.59 430.38
  A 0.63 0.63 0.0 0 0 827.21 431.14
  C 830.52 431.09 837.16 431.58 838.13 435.40
  C 839.09 439.22 837.34 445.18 836.46 448.45
  Q 828.57 477.83 813.07 536.29
  C 811.39 542.63 809.29 548.41 802.05 549.58
  Q 796.91 550.42 795.83 550.36
  A 1.02 1.02 0.0 0 0 794.77 551.17
  L 794.40 552.95
  A 0.78 0.77 5.3 0 0 795.18 553.88
  Q 828.48 553.15 839.00 553.68
  Q 852.06 554.34 864.58 553.45
  A 0.40 0.40 0.0 0 1 864.99 553.95
  L 852.29 601.65
  C 837.32 606.73 829.38 621.66 834.67 636.70
  L 829.10 637.35
  A 0.87 0.87 0.0 0 0 828.35 638.03
  L 827.88 640.27
  A 0.62 0.62 0.0 0 0 828.51 641.01
  L 836.37 640.73
  Q 840.57 647.85 847.84 651.55
  A 0.26 0.25 -31.2 0 1 847.72 652.03
  L 800.05 652.03
  A 0.29 0.28 -81.6 0 1 799.78 651.66
  Q 801.71 645.27 805.28 639.63
  A 0.19 0.19 0.0 0 0 805.23 639.37
  L 805.23 639.36
  A 0.19 0.18 -51.3 0 0 804.99 639.39
  Q 799.45 645.63 797.25 652.96
  A 0.87 0.86 8.3 0 0 798.08 654.07
  Q 963.71 654.03 1173.26 654.06
  Q 1174.18 654.06 1173.69 655.10
  A 242.77 242.73 -2.8 0 1 1095.13 741.62
  A 242.74 242.71 28.0 0 1 960.76 782.71
  A 242.73 242.72 -28.5 0 1 827.45 743.33
  A 243.09 242.99 84.0 0 1 788.87 712.13
  A 242.78 242.73 -73.3 0 1 722.02 587.74
  A 243.63 243.07 -51.0 0 1 717.28 542.00
  A 242.77 242.71 -33.5 0 1 737.29 443.49
  A 242.70 242.70 0.0 0 1 823.69 339.16
  A 242.70 242.61 -67.8 0 1 911.92 302.09
  A 168.64 118.08 -8.5 0 1 935.50 298.52
  A 243.18 242.58 44.5 0 1 981.26 298.21
  A 171.04 120.76 8.2 0 1 1005.22 301.53
  A 242.73 242.73 0.0 0 1 1114.88 353.12
  A 242.54 242.54 0.0 0 1 1173.64 424.82
  A 242.86 242.71 28.1 0 1 1201.57 516.47
  A 242.73 242.65 56.0 0 1 1175.30 652.04
  Z
  M 996.58 469.65
  L 996.58 457.93
  A 0.65 0.64 -5.5 0 0 995.81 457.30
  L 987.84 458.86
  A 0.71 0.71 0.0 0 0 987.26 459.56
  L 987.26 461.30
  A 0.65 0.65 0.0 0 0 987.91 461.95
  L 989.63 461.95
  A 0.70 0.70 0.0 0 1 990.33 462.66
  Q 990.18 480.33 990.29 485.00
  Q 990.33 486.86 989.25 487.60
  Q 987.91 488.52 987.89 488.56
  Q 987.44 489.32 987.54 490.55
  A 0.48 0.48 0.0 0 0 988.02 490.99
  L 998.81 490.99
  A 0.51 0.51 0.0 0 0 999.32 490.48
  L 999.32 488.24
  A 0.55 0.55 0.0 0 0 998.77 487.69
  L 996.94 487.69
  A 0.38 0.37 -0.0 0 1 996.56 487.32
  L 996.56 475.27
  A 3.20 3.19 0.0 0 1 999.76 472.08
  L 1000.22 472.08
  A 3.96 3.95 88.7 0 1 1004.17 475.86
  Q 1004.41 480.99 1004.27 485.28
  Q 1004.19 487.97 1002.50 487.96
  A 0.93 0.93 0.0 0 0 1001.57 488.89
  L 1001.57 490.19
  A 0.80 0.79 90.0 0 0 1002.36 490.99
  L 1012.62 490.99
  A 0.74 0.74 0.0 0 0 1013.36 490.25
  L 1013.36 488.32
  A 0.75 0.74 -5.4 0 0 1012.47 487.59
  L 1011.40 487.80
  A 0.71 0.70 -4.6 0 1 1010.56 487.09
  C 1010.71 482.48 1011.48 473.36 1008.69 470.17
  C 1005.38 466.40 1000.89 468.38 997.07 469.97
  A 0.36 0.35 -11.3 0 1 996.58 469.65
  Z
  M 971.88 472.92
  Q 971.58 478.63 971.81 484.19
  Q 972.15 492.55 980.16 491.53
  Q 984.08 491.03 986.31 487.76
  A 1.40 1.39 -51.5 0 0 986.11 485.96
  L 985.75 485.63
  A 1.17 1.17 0.0 0 0 984.04 485.75
  C 982.28 487.95 978.48 488.68 978.23 484.68
  Q 978.00 481.02 978.17 472.61
  A 0.45 0.44 0.7 0 1 978.62 472.18
  L 983.24 472.18
  A 0.54 0.54 0.0 0 0 983.78 471.64
  L 983.78 469.15
  A 0.46 0.46 0.0 0 0 983.32 468.69
  L 978.73 468.69
  A 0.59 0.59 0.0 0 1 978.14 468.10
  L 978.14 463.68
  A 0.65 0.64 0.0 0 0 977.49 463.04
  L 975.64 463.04
  A 1.21 1.21 0.0 0 0 974.51 463.81
  Q 972.96 467.79 969.28 468.67
  A 0.69 0.69 0.0 0 0 968.76 469.34
  L 968.76 471.73
  A 0.66 0.65 -90.0 0 0 969.41 472.39
  L 971.37 472.39
  A 0.51 0.50 1.6 0 1 971.88 472.92
  Z
  M 932.43 471.20
  L 932.43 469.13
  A 1.02 1.01 -9.9 0 0 931.07 468.18
  Q 927.24 469.56 923.95 469.60
  A 0.69 0.69 0.0 0 0 923.26 470.29
  L 923.26 472.42
  A 0.48 0.47 -0.0 0 0 923.74 472.89
  L 925.90 472.89
  A 0.51 0.50 -86.9 0 1 926.40 473.45
  Q 926.20 475.25 926.20 484.98
  Q 926.20 487.85 924.30 488.03
  A 0.84 0.83 -2.6 0 0 923.54 488.86
  L 923.54 490.37
  A 0.61 0.61 0.0 0 0 924.15 490.98
  L 934.54 490.98
  A 0.75 0.75 0.0 0 0 935.29 490.23
  L 935.29 488.40
  A 0.70 0.70 0.0 0 0 934.59 487.70
  L 933.13 487.70
  A 0.70 0.69 1.5 0 1 932.43 486.97
  Q 932.64 482.47 932.51 478.46
  Q 932.37 474.44 936.09 472.25
  A 0.58 0.58 0.0 0 1 936.93 472.54
  L 937.29 473.47
  A 1.40 1.37 5.2 0 0 937.85 474.13
  C 942.74 477.02 945.35 469.22 939.70 468.10
  Q 936.45 467.45 933.16 471.46
  A 0.41 0.41 0.0 0 1 932.43 471.20
  Z
  M 957.2321 468.0278
  A 11.98 11.32 -81.3 0 0 944.2302 478.1577
  A 11.98 11.32 -81.3 0 0 953.6079 491.7122
  A 11.98 11.32 -81.3 0 0 966.6098 481.5823
  A 11.98 11.32 -81.3 0 0 957.2321 468.0278
  Z
  M 1022.27 479.46
  A 0.40 0.39 -85.8 0 1 1022.66 479.12
  L 1036.35 479.12
  A 0.49 0.48 -90.0 0 0 1036.83 478.63
  Q 1036.82 471.46 1031.68 469.03
  C 1027.68 467.14 1022.45 467.84 1019.28 471.06
  C 1013.13 477.29 1014.71 489.80 1024.57 491.47
  Q 1031.59 492.66 1036.49 487.13
  A 1.04 1.03 -46.7 0 0 1036.45 485.71
  L 1035.79 485.05
  A 0.95 0.94 -43.9 0 0 1034.48 485.03
  C 1029.88 489.27 1023.91 488.78 1022.48 482.27
  Q 1022.13 480.65 1022.27 479.46
  Z
  M 1048.95 471.19
  L 1048.95 469.12
  A 1.02 1.01 -9.9 0 0 1047.59 468.16
  Q 1043.76 469.54 1040.46 469.58
  A 0.69 0.69 0.0 0 0 1039.77 470.27
  L 1039.77 472.40
  A 0.48 0.47 0.1 0 0 1040.25 472.87
  L 1042.41 472.87
  A 0.51 0.50 -86.9 0 1 1042.91 473.43
  Q 1042.71 475.24 1042.70 484.98
  Q 1042.69 487.85 1040.79 488.03
  A 0.84 0.83 -2.6 0 0 1040.03 488.86
  L 1040.03 490.37
  A 0.61 0.61 0.0 0 0 1040.64 490.98
  L 1051.04 490.99
  A 0.75 0.75 0.0 0 0 1051.79 490.24
  L 1051.79 488.41
  A 0.70 0.70 0.0 0 0 1051.09 487.71
  L 1049.63 487.71
  A 0.70 0.69 1.6 0 1 1048.93 486.98
  Q 1049.15 482.47 1049.02 478.46
  Q 1048.88 474.43 1052.61 472.24
  A 0.58 0.58 0.0 0 1 1053.45 472.54
  L 1053.81 473.47
  A 1.40 1.38 5.3 0 0 1054.37 474.13
  C 1059.26 477.03 1061.89 469.22 1056.23 468.09
  Q 1052.98 467.44 1049.68 471.45
  A 0.41 0.41 0.0 0 1 1048.95 471.19
  Z
  M 1064.87 490.85
  A 0.75 0.74 22.8 0 1 1065.83 490.46
  Q 1071.29 492.60 1075.20 491.03
  C 1078.85 489.57 1080.54 486.41 1079.32 482.63
  C 1077.98 478.45 1071.12 476.99 1067.93 475.62
  C 1065.75 474.69 1065.98 471.58 1068.44 471.26
  Q 1073.69 470.56 1075.31 475.27
  A 1.60 1.60 0.0 0 0 1078.42 474.75
  L 1078.42 468.85
  A 0.64 0.64 0.0 0 0 1077.89 468.22
  Q 1075.89 467.86 1074.94 468.80
  A 0.80 0.79 -56.5 0 1 1074.09 468.98
  C 1068.47 466.82 1061.83 468.28 1061.32 475.08
  C 1060.90 480.62 1068.61 482.49 1072.92 484.29
  A 2.26 1.83 17.6 0 1 1074.35 486.46
  Q 1073.99 488.44 1071.49 488.48
  Q 1066.24 488.54 1064.49 484.35
  A 1.51 1.51 0.0 0 0 1061.59 484.93
  L 1061.59 490.55
  A 0.74 0.73 4.6 0 0 1062.21 491.27
  Q 1064.53 491.64 1064.87 490.85
  Z
  M 984.17 539.50
  Q 984.18 548.25 984.18 548.75
  Q 984.21 551.69 981.94 551.94
  A 1.13 1.12 86.9 0 0 980.94 553.06
  L 980.94 554.17
  A 0.81 0.81 0.0 0 0 981.75 554.98
  L 992.90 554.98
  A 0.95 0.95 0.0 0 0 993.85 554.03
  L 993.85 552.48
  A 1.01 1.01 0.0 0 0 992.65 551.49
  L 991.21 551.77
  A 0.51 0.51 0.0 0 1 990.60 551.27
  Q 990.61 544.84 990.61 539.25
  Q 990.60 530.50 990.60 529.99
  Q 990.57 527.05 992.84 526.80
  A 1.13 1.12 86.9 0 0 993.84 525.68
  L 993.84 524.57
  A 0.81 0.81 0.0 0 0 993.03 523.76
  L 981.88 523.76
  A 0.95 0.95 0.0 0 0 980.93 524.71
  L 980.93 526.26
  A 1.01 1.01 0.0 0 0 982.13 527.25
  L 983.57 526.97
  A 0.51 0.51 0.0 0 1 984.18 527.47
  Q 984.17 533.90 984.17 539.50
  Z
  M 1102.13 614.84
  A 0.74 0.74 0.0 0 1 1103.08 614.45
  Q 1108.54 616.58 1112.45 615.01
  C 1116.09 613.54 1117.77 610.38 1116.55 606.61
  C 1115.20 602.43 1108.35 600.99 1105.16 599.62
  C 1102.98 598.70 1103.20 595.59 1105.66 595.27
  Q 1110.90 594.56 1112.53 599.26
  A 1.60 1.60 0.0 0 0 1115.63 598.73
  L 1115.62 592.84
  A 0.64 0.64 0.0 0 0 1115.09 592.21
  Q 1113.09 591.85 1112.15 592.80
  A 0.80 0.78 -56.6 0 1 1111.30 592.98
  C 1105.68 590.83 1099.05 592.30 1098.55 599.09
  C 1098.14 604.63 1105.85 606.48 1110.16 608.28
  A 2.26 1.83 17.5 0 1 1111.59 610.44
  Q 1111.23 612.42 1108.74 612.46
  Q 1103.49 612.53 1101.73 608.35
  A 1.51 1.51 0.0 0 0 1098.84 608.94
  L 1098.85 614.55
  A 0.74 0.73 4.5 0 0 1099.47 615.27
  Q 1101.79 615.63 1102.13 614.84
  Z
  M 763.38 626.13
  C 757.73 633.56 754.94 643.89 753.23 653.05
  A 0.96 0.96 0.0 0 0 754.17 654.18
  L 754.81 654.18
  A 1.34 1.34 0.0 0 0 756.15 652.95
  Q 757.40 638.53 763.59 626.26
  A 0.12 0.12 0.0 0 0 763.38 626.13
  Z
  M 784.36 630.03
  A 0.49 0.49 0.0 0 0 783.72 630.26
  Q 778.24 641.12 776.28 653.70
  A 0.21 0.21 0.0 0 0 776.49 653.94
  L 779.05 653.94
  A 0.27 0.26 1.1 0 0 779.32 653.69
  Q 780.17 641.92 784.64 630.68
  A 0.50 0.49 22.4 0 0 784.37 630.04
  L 784.36 630.03
  Z
  M 772.95 631.60
  A 0.16 0.15 -54.7 0 0 772.74 631.64
  Q 765.50 641.29 763.24 653.36
  A 0.57 0.57 0.0 0 0 763.80 654.04
  L 765.48 654.04
  A 0.74 0.74 0.0 0 0 766.22 653.37
  Q 767.18 642.16 773.02 631.89
  A 0.21 0.21 0.0 0 0 772.95 631.61
  L 772.95 631.60
  Z
  M 795.92 635.82
  A 0.26 0.25 -54.0 0 0 795.57 635.88
  Q 789.66 643.74 787.80 653.16
  A 0.85 0.85 0.0 0 0 788.63 654.18
  L 789.29 654.18
  A 1.14 1.14 0.0 0 0 790.42 653.20
  Q 791.75 643.76 796.09 636.22
  A 0.27 0.27 0.0 0 0 796.01 635.87
  L 795.92 635.82
  Z
  M 894.12 680.95
  L 894.86 678.15
  A 1.05 1.04 -82.4 0 1 895.87 677.37
  L 901.40 677.37
  A 1.11 1.10 -18.1 0 1 902.29 677.82
  Q 904.21 680.46 901.89 682.26
  A 0.96 0.96 0.0 0 0 902.48 683.98
  L 909.77 683.98
  A 0.58 0.58 0.0 0 0 910.35 683.40
  L 910.35 682.18
  A 0.55 0.55 0.0 0 0 909.80 681.63
  L 909.35 681.63
  A 0.89 0.87 79.2 0 1 908.53 681.06
  L 901.06 661.82
  A 1.59 1.59 0.0 0 0 898.08 661.86
  Q 892.61 677.36 891.37 680.13
  Q 890.88 681.23 889.50 681.97
  A 1.08 1.08 0.0 0 0 890.01 684.00
  L 895.29 684.00
  A 0.75 0.75 0.0 0 0 896.04 683.25
  L 896.04 682.29
  A 0.77 0.77 0.0 0 0 895.27 681.52
  L 894.56 681.52
  A 0.45 0.45 0.0 0 1 894.12 680.95
  Z
  M 992.36 680.95
  L 993.11 678.15
  A 1.05 1.04 -82.3 0 1 994.12 677.37
  L 999.65 677.38
  A 1.11 1.10 -18.0 0 1 1000.54 677.83
  Q 1002.45 680.47 1000.13 682.27
  A 0.96 0.96 0.0 0 0 1000.72 683.99
  L 1008.01 684.00
  A 0.58 0.58 0.0 0 0 1008.59 683.42
  L 1008.59 682.20
  A 0.55 0.55 0.0 0 0 1008.04 681.65
  L 1007.59 681.65
  A 0.89 0.87 79.3 0 1 1006.77 681.08
  L 999.34 661.83
  A 1.59 1.59 0.0 0 0 996.36 661.86
  Q 990.86 677.35 989.61 680.12
  Q 989.12 681.22 987.74 681.96
  A 1.08 1.08 0.0 0 0 988.25 683.99
  L 993.53 684.00
  A 0.75 0.75 0.0 0 0 994.28 683.25
  L 994.28 682.29
  A 0.77 0.77 0.0 0 0 993.51 681.52
  L 992.80 681.52
  A 0.45 0.45 0.0 0 1 992.36 680.95
  Z
  M 982.61 662.19
  Q 973.68 658.84 968.78 665.82
  C 965.85 670.01 965.86 676.88 969.38 680.82
  C 974.04 686.03 982.15 685.78 986.86 679.90
  A 0.78 0.78 0.0 0 0 986.81 678.88
  L 986.53 678.60
  A 0.98 0.97 -46.7 0 0 985.09 678.65
  C 981.76 682.54 975.22 683.62 972.80 677.95
  Q 970.55 672.66 972.68 667.46
  C 974.92 661.99 982.08 661.68 983.49 667.94
  A 1.15 1.15 0.0 0 0 985.76 667.68
  L 985.76 661.93
  A 0.75 0.75 0.0 0 0 985.14 661.19
  Q 983.86 660.96 983.39 661.88
  A 0.62 0.62 0.0 0 1 982.61 662.19
  Z
  M 877.69 681.01
  L 877.82 664.87
  A 0.72 0.68 -29.4 0 1 877.94 664.48
  Q 878.35 663.85 879.41 663.77
  A 0.69 0.68 87.8 0 0 880.04 663.08
  L 880.04 662.06
  A 0.52 0.51 90.0 0 0 879.53 661.54
  L 871.46 661.54
  A 0.65 0.64 90.0 0 0 870.82 662.19
  L 870.82 663.35
  A 0.55 0.55 0.0 0 0 871.37 663.90
  L 872.56 663.90
  A 0.70 0.69 1.2 0 1 873.26 664.62
  Q 873.02 672.08 873.18 679.13
  Q 873.23 681.40 871.43 682.07
  A 0.99 0.99 0.0 0 0 871.77 683.99
  L 887.36 683.99
  A 0.70 0.70 0.0 0 0 888.06 683.28
  L 887.97 676.90
  A 0.92 0.91 53.9 0 0 886.19 676.62
  C 885.23 679.03 885.53 681.66 881.89 681.52
  C 881.01 681.49 879.28 681.69 878.24 681.60
  A 0.59 0.59 0.0 0 1 877.69 681.01
  Z
  M 919.20 677.11
  Q 917.48 671.16 916.14 665.61
  Q 915.95 664.84 916.25 664.38
  Q 916.50 664.00 917.26 663.77
  Q 917.90 663.58 918.10 663.08
  Q 918.66 661.63 917.43 661.54
  Q 917.41 661.54 917.39 661.54
  L 909.54 661.54
  A 1.14 1.14 0.0 0 0 909.25 663.79
  L 909.73 663.92
  A 1.23 1.23 0.0 0 1 910.58 664.72
  L 916.69 683.19
  A 1.93 1.92 43.2 0 0 920.38 683.08
  L 924.13 668.87
  A 0.19 0.19 0.0 0 1 924.50 668.86
  L 929.09 683.22
  A 1.81 1.81 0.0 0 0 932.55 683.16
  Q 932.62 682.94 937.50 667.04
  Q 938.27 664.56 940.36 663.66
  A 1.11 1.10 33.3 0 0 939.92 661.54
  L 934.37 661.54
  A 0.80 0.80 0.0 0 0 933.57 662.34
  L 933.57 663.15
  A 0.77 0.77 0.0 0 0 934.34 663.92
  L 935.25 663.92
  A 0.27 0.27 0.0 0 1 935.51 664.26
  L 932.07 677.30
  A 0.18 0.18 0.0 0 1 931.73 677.31
  L 927.31 662.57
  A 1.98 1.97 -46.0 0 0 923.51 662.64
  L 919.70 677.10
  A 0.26 0.26 0.0 0 1 919.20 677.11
  Z
  M 959.68 676.47
  A 0.16 0.16 0.0 0 1 959.39 676.57
  L 948.05 662.03
  A 1.30 1.28 70.5 0 0 947.04 661.54
  L 943.23 661.54
  A 0.72 0.72 0.0 0 0 942.51 662.26
  L 942.51 663.35
  A 0.59 0.58 -0.0 0 0 943.10 663.93
  L 944.23 663.93
  A 0.67 0.67 0.0 0 1 944.90 664.60
  Q 944.84 672.40 944.88 679.76
  Q 944.89 681.66 943.42 681.85
  A 1.08 1.08 0.0 0 0 943.55 684.01
  L 949.32 684.01
  A 0.71 0.70 -90.0 0 0 950.02 683.30
  L 950.02 682.34
  A 0.73 0.73 0.0 0 0 949.29 681.61
  L 948.09 681.61
  A 0.46 0.46 0.0 0 1 947.63 681.15
  L 947.63 669.36
  A 0.16 0.16 0.0 0 1 947.91 669.26
  L 959.30 683.84
  A 1.20 1.19 71.2 0 0 960.25 684.31
  L 961.94 684.31
  A 0.49 0.48 -90.0 0 0 962.42 683.82
  Q 962.41 674.53 962.40 666.25
  Q 962.40 663.95 963.76 663.74
  A 1.28 1.27 -2.3 0 0 964.83 662.59
  L 964.84 662.56
  A 0.96 0.95 -88.3 0 0 963.88 661.54
  L 958.05 661.58
  A 0.79 0.79 0.0 0 0 957.27 662.37
  L 957.27 663.22
  A 0.73 0.72 90.0 0 0 957.99 663.95
  L 959.13 663.95
  A 0.55 0.54 -0.0 0 1 959.68 664.49
  L 959.68 676.47
  Z
  M 1023.91 674.22
  Q 1027.19 672.89 1028.08 670.60
  C 1029.63 666.59 1027.64 662.52 1023.37 661.89
  Q 1018.61 661.19 1010.81 661.65
  A 0.55 0.55 0.0 0 0 1010.29 662.20
  L 1010.29 663.31
  A 0.60 0.60 0.0 0 0 1010.89 663.91
  L 1011.94 663.91
  A 0.74 0.74 0.0 0 1 1012.68 664.65
  Q 1012.64 676.13 1012.60 679.69
  C 1012.58 681.05 1012.09 681.61 1010.90 681.95
  A 1.04 1.04 0.0 0 0 1011.18 683.99
  L 1019.15 683.99
  A 0.80 0.79 -90.0 0 0 1019.94 683.19
  L 1019.94 682.28
  A 0.71 0.71 0.0 0 0 1019.23 681.57
  L 1017.84 681.57
  A 0.59 0.58 90.0 0 1 1017.26 680.98
  L 1017.26 675.94
  A 0.96 0.96 0.0 0 1 1018.97 675.35
  Q 1020.61 677.45 1023.35 682.05
  C 1024.74 684.38 1027.27 684.46 1029.63 683.92
  A 1.03 1.03 0.0 0 0 1029.93 682.03
  L 1028.80 681.35
  A 2.11 2.00 -1.5 0 1 1028.21 680.82
  L 1023.73 674.86
  A 0.42 0.42 0.0 0 1 1023.91 674.22
  Z
  M 1039.30 670.79
  L 1039.30 664.99
  A 1.22 1.22 0.0 0 1 1040.32 663.79
  Q 1045.97 662.82 1046.56 667.12
  A 0.99 0.99 0.0 0 0 1048.51 667.17
  Q 1048.63 666.57 1048.36 662.14
  A 0.64 0.64 0.0 0 0 1047.72 661.54
  L 1033.07 661.54
  A 0.85 0.84 90.0 0 0 1032.23 662.39
  L 1032.23 663.12
  A 0.80 0.80 0.0 0 0 1033.03 663.92
  L 1034.13 663.92
  A 0.60 0.60 0.0 0 1 1034.73 664.57
  Q 1034.58 666.28 1034.68 679.38
  Q 1034.69 681.49 1032.94 681.97
  A 1.06 1.03 -33.3 0 0 1032.54 683.79
  Q 1032.72 683.93 1033.09 683.94
  Q 1037.51 684.05 1048.93 683.95
  A 0.46 0.45 -0.7 0 0 1049.38 683.50
  L 1049.38 677.59
  A 0.75 0.75 0.0 0 0 1048.63 676.84
  L 1048.31 676.84
  A 0.95 0.95 0.0 0 0 1047.38 677.59
  L 1047.03 679.29
  A 2.64 2.64 0.0 0 1 1044.59 681.39
  L 1039.75 681.65
  A 0.50 0.49 88.4 0 1 1039.23 681.15
  L 1039.23 674.10
  A 0.66 0.66 0.0 0 1 1039.88 673.44
  Q 1043.31 673.35 1043.10 675.15
  A 1.08 1.08 0.0 0 0 1044.17 676.35
  L 1044.59 676.35
  A 0.78 0.78 0.0 0 0 1045.37 675.57
  L 1045.37 669.27
  A 0.92 0.92 0.0 0 0 1044.45 668.35
  L 1043.83 668.35
  A 0.81 0.80 -1.7 0 0 1043.02 669.20
  L 1043.10 670.71
  A 0.58 0.57 -1.4 0 1 1042.52 671.31
  L 1039.83 671.31
  A 0.53 0.52 0.0 0 1 1039.30 670.79
  Z"
/>
<path fill="#000000" d="
  M 950.12 551.47
  Q 942.02 563.89 927.92 569.10
  L 916.56 572.73
  L 907.41 574.38
  A 0.21 0.21 0.0 0 0 907.44 574.79
  C 926.88 575.34 949.17 584.87 944.96 608.69
  Q 943.72 615.73 938.59 622.68
  Q 933.82 628.19 926.17 632.67
  Q 910.81 640.08 893.16 640.74
  L 882.40 641.03
  Q 858.77 640.05 836.37 640.73
  L 828.51 641.01
  A 0.62 0.62 0.0 0 1 827.88 640.27
  L 828.35 638.03
  A 0.87 0.87 0.0 0 1 829.10 637.35
  L 834.67 636.70
  C 841.78 636.13 844.34 630.95 846.04 624.85
  Q 849.24 613.36 852.29 601.65
  L 864.99 553.95
  A 0.40 0.40 0.0 0 0 864.58 553.45
  Q 852.06 554.34 839.00 553.68
  Q 828.48 553.15 795.18 553.88
  A 0.78 0.77 5.3 0 1 794.40 552.95
  L 794.77 551.17
  A 1.02 1.02 0.0 0 1 795.83 550.36
  Q 796.91 550.42 802.05 549.58
  C 809.29 548.41 811.39 542.63 813.07 536.29
  Q 828.57 477.83 836.46 448.45
  C 837.34 445.18 839.09 439.22 838.13 435.40
  C 837.16 431.58 830.52 431.09 827.21 431.14
  A 0.63 0.63 0.0 0 1 826.59 430.38
  L 827.02 428.30
  A 0.93 0.92 6.7 0 1 827.95 427.57
  Q 850.01 428.34 880.50 427.70
  C 891.09 427.48 904.01 428.79 912.63 435.77
  C 920.76 442.35 921.56 453.67 917.24 462.75
  C 909.72 478.55 890.24 485.27 874.02 487.30
  A 0.23 0.23 0.0 0 0 873.82 487.55
  L 873.83 487.80
  A 0.01 0.01 0.0 0 0 873.84 487.81
  C 890.04 488.16 910.55 495.06 911.95 514.11
  A 0.66 0.65 -2.3 0 0 912.62 514.72
  Q 923.34 514.49 932.51 516.43
  C 950.62 520.26 958.00 534.22 950.12 551.47
  Z
  M 854.70 486.14
  A 0.47 0.47 0.0 0 0 855.11 486.72
  Q 861.76 487.32 867.74 486.03
  C 879.26 483.54 886.93 472.85 889.92 461.91
  C 893.07 450.40 894.61 427.98 875.09 431.37
  C 868.70 432.48 867.41 438.04 865.97 443.46
  Q 858.37 472.19 854.70 486.14
  Z
  M 860.53 515.36
  A 0.69 0.69 0.0 0 1 861.21 514.80
  L 881.64 514.80
  A 0.44 0.44 0.0 0 0 882.08 514.39
  Q 882.47 507.81 880.72 502.41
  C 876.68 489.98 866.12 489.39 854.29 489.90
  A 0.74 0.73 -83.5 0 0 853.61 490.45
  Q 849.13 506.64 841.03 538.27
  C 839.52 544.17 839.90 549.60 847.31 549.82
  C 854.12 550.02 862.67 548.77 867.16 544.49
  A 2.28 2.25 -14.0 0 0 867.77 543.49
  Q 869.66 536.93 871.20 530.23
  C 871.97 526.88 872.93 521.32 869.48 519.76
  Q 865.59 518.00 860.70 518.18
  A 0.60 0.60 0.0 0 1 860.09 517.46
  L 860.53 515.36
  Z
  M 889.26 573.61
  Q 899.45 574.91 908.10 570.45
  Q 910.74 569.05 913.32 566.29
  Q 917.16 562.93 919.87 557.73
  Q 927.03 544.14 924.59 528.83
  Q 922.93 518.45 912.51 518.08
  A 0.63 0.62 3.4 0 0 911.86 518.65
  Q 910.61 531.27 901.02 539.76
  Q 899.87 540.77 896.53 543.31
  A 2.17 2.10 79.6 0 0 895.76 544.47
  L 888.16 573.25
  A 0.40 0.40 0.0 0 0 888.32 573.68
  Q 888.73 573.96 889.26 573.61
  Z
  M 881.45 598.66
  L 878.80 609.42
  Q 875.75 619.19 874.12 627.79
  C 873.47 631.29 873.66 635.28 877.73 636.29
  Q 881.34 637.18 884.85 636.80
  Q 899.61 636.07 908.54 623.78
  Q 918.74 608.09 914.55 590.23
  Q 912.64 582.08 904.53 578.49
  C 899.94 576.47 893.02 576.68 887.70 576.95
  A 0.74 0.73 -83.5 0 0 887.02 577.50
  L 881.45 598.66
  Z"
/>
<path fill="#b1d9b7" d="
  M 854.70 486.14
  Q 858.37 472.19 865.97 443.46
  C 867.41 438.04 868.70 432.48 875.09 431.37
  C 894.61 427.98 893.07 450.40 889.92 461.91
  C 886.93 472.85 879.26 483.54 867.74 486.03
  Q 861.76 487.32 855.11 486.72
  A 0.47 0.47 0.0 0 1 854.70 486.14
  Z"
/>
<path fill="#000000" d="
  M 997.07 469.97
  C 1000.89 468.38 1005.38 466.40 1008.69 470.17
  C 1011.48 473.36 1010.71 482.48 1010.56 487.09
  A 0.71 0.70 -4.6 0 0 1011.40 487.80
  L 1012.47 487.59
  A 0.75 0.74 -5.4 0 1 1013.36 488.32
  L 1013.36 490.25
  A 0.74 0.74 0.0 0 1 1012.62 490.99
  L 1002.36 490.99
  A 0.80 0.79 90.0 0 1 1001.57 490.19
  L 1001.57 488.89
  A 0.93 0.93 0.0 0 1 1002.50 487.96
  Q 1004.19 487.97 1004.27 485.28
  Q 1004.41 480.99 1004.17 475.86
  A 3.96 3.95 88.7 0 0 1000.22 472.08
  L 999.76 472.08
  A 3.20 3.19 -0.0 0 0 996.56 475.27
  L 996.56 487.32
  A 0.38 0.37 0.0 0 0 996.94 487.69
  L 998.77 487.69
  A 0.55 0.55 0.0 0 1 999.32 488.24
  L 999.32 490.48
  A 0.51 0.51 0.0 0 1 998.81 490.99
  L 988.02 490.99
  A 0.48 0.48 0.0 0 1 987.54 490.55
  Q 987.44 489.32 987.89 488.56
  Q 987.91 488.52 989.25 487.60
  Q 990.33 486.86 990.29 485.00
  Q 990.18 480.33 990.33 462.66
  A 0.70 0.70 0.0 0 0 989.63 461.95
  L 987.91 461.95
  A 0.65 0.65 0.0 0 1 987.26 461.30
  L 987.26 459.56
  A 0.71 0.71 0.0 0 1 987.84 458.86
  L 995.81 457.30
  A 0.65 0.64 -5.5 0 1 996.58 457.93
  L 996.58 469.65
  A 0.36 0.35 -11.3 0 0 997.07 469.97
  Z"
/>
<path fill="#000000" d="
  M 971.88 472.92
  A 0.51 0.50 1.6 0 0 971.37 472.39
  L 969.41 472.39
  A 0.66 0.65 90.0 0 1 968.76 471.73
  L 968.76 469.34
  A 0.69 0.69 0.0 0 1 969.28 468.67
  Q 972.96 467.79 974.51 463.81
  A 1.21 1.21 0.0 0 1 975.64 463.04
  L 977.49 463.04
  A 0.65 0.64 -0.0 0 1 978.14 463.68
  L 978.14 468.10
  A 0.59 0.59 0.0 0 0 978.73 468.69
  L 983.32 468.69
  A 0.46 0.46 0.0 0 1 983.78 469.15
  L 983.78 471.64
  A 0.54 0.54 0.0 0 1 983.24 472.18
  L 978.62 472.18
  A 0.45 0.44 0.7 0 0 978.17 472.61
  Q 978.00 481.02 978.23 484.68
  C 978.48 488.68 982.28 487.95 984.04 485.75
  A 1.17 1.17 0.0 0 1 985.75 485.63
  L 986.11 485.96
  A 1.40 1.39 -51.5 0 1 986.31 487.76
  Q 984.08 491.03 980.16 491.53
  Q 972.15 492.55 971.81 484.19
  Q 971.58 478.63 971.88 472.92
  Z"
/>
<path fill="#74ae62" d="
  M 1032.72 592.03
  L 1024.05 593.79
  L 1018.81 594.02
  Q 1019.31 591.16 1015.07 592.80
  C 1013.33 593.46 1012.14 593.49 1010.50 593.60
  A 0.84 0.84 0.0 0 0 1009.76 594.15
  Q 1009.50 594.91 1009.50 595.79
  L 1005.23 596.29
  L 1005.13 592.93
  A 0.75 0.74 5.6 0 0 1004.55 592.23
  Q 1002.83 591.84 1001.70 592.75
  A 0.95 0.94 35.3 0 1 1000.79 592.90
  C 996.51 591.37 991.47 591.56 989.05 595.63
  C 986.82 599.38 988.22 603.46 992.28 605.18
  Q 991.30 606.29 991.16 608.03
  Q 990.06 607.44 988.83 607.72
  A 0.66 0.64 -5.7 0 0 988.31 608.34
  Q 988.25 611.23 988.38 614.11
  Q 988.44 615.25 989.74 615.32
  C 988.55 616.64 989.26 620.24 989.63 621.90
  A 0.57 0.56 83.8 0 1 989.08 622.59
  L 938.59 622.68
  Q 943.72 615.73 944.96 608.69
  C 949.17 584.87 926.88 575.34 907.44 574.79
  A 0.21 0.21 0.0 0 1 907.41 574.38
  L 916.56 572.73
  Q 920.05 573.45 923.35 574.09
  Q 927.38 574.88 930.22 575.06
  Q 947.66 576.20 965.77 574.08
  Q 978.52 572.58 983.92 569.34
  A 8.83 3.60 -33.5 0 0 984.96 568.65
  C 987.65 566.72 991.43 562.91 994.88 561.13
  Q 1000.71 558.13 1005.05 557.57
  Q 1010.63 556.84 1014.52 555.25
  L 1022.38 555.04
  A 0.68 0.68 0.0 0 0 1023.04 554.33
  L 1022.92 552.23
  A 0.62 0.62 0.0 0 0 1022.27 551.64
  L 1020.96 551.72
  A 0.62 0.62 0.0 0 1 1020.31 551.07
  L 1020.46 547.09
  Q 1031.82 533.91 1047.91 528.42
  Q 1055.56 525.82 1065.13 522.48
  A 0.48 0.48 0.0 0 1 1065.76 522.90
  L 1066.26 532.12
  A 0.46 0.46 0.0 0 0 1067.06 532.41
  Q 1086.77 510.93 1127.84 465.84
  Q 1129.23 464.31 1131.00 464.47
  Q 1148.35 466.06 1167.55 467.91
  A 0.56 0.55 -64.2 0 1 1167.88 468.86
  L 1069.06 565.60
  A 3.01 2.97 -24.0 0 0 1068.16 567.89
  L 1069.13 585.72
  A 0.63 0.62 83.8 0 1 1068.61 586.37
  L 1032.72 592.03
  Z
  M 1133.95 471.77
  A 0.43 0.43 0.0 0 0 1133.54 471.90
  L 1066.99 543.40
  A 0.43 0.43 0.0 0 0 1066.88 543.71
  L 1067.67 558.30
  A 0.43 0.43 0.0 0 0 1068.40 558.58
  L 1150.99 475.99
  A 0.43 0.43 0.0 0 0 1150.77 475.27
  L 1133.95 471.77
  Z
  M 1015.9788 580.9007
  A 3.71 3.35 -91.1 0 0 1012.7006 584.6743
  A 3.71 3.35 -91.1 0 0 1016.1212 588.3193
  A 3.71 3.35 -91.1 0 0 1019.3994 584.5457
  A 3.71 3.35 -91.1 0 0 1015.9788 580.9007
  Z
  M 976.23 597.35
  L 976.23 607.87
  A 3.67 3.67 0.0 0 1 973.03 611.51
  L 972.51 611.58
  A 3.31 3.31 0.0 0 1 968.77 608.30
  L 968.77 593.05
  A 0.81 0.81 0.0 0 0 967.80 592.25
  L 960.02 593.76
  A 0.85 0.84 84.6 0 0 959.34 594.59
  L 959.34 595.96
  A 0.91 0.91 0.0 0 0 960.25 596.87
  L 961.88 596.87
  A 0.65 0.65 0.0 0 1 962.53 597.53
  C 962.40 602.35 961.03 613.50 966.81 615.24
  Q 971.75 616.72 976.11 612.97
  A 0.33 0.33 0.0 0 1 976.66 613.22
  L 976.66 614.26
  A 0.72 0.72 0.0 0 0 977.38 614.98
  L 984.58 614.98
  A 0.72 0.71 -0.0 0 0 985.30 614.27
  L 985.30 612.21
  A 0.51 0.50 0.0 0 0 984.79 611.71
  L 983.12 611.71
  A 0.60 0.59 90.0 0 1 982.53 611.11
  L 982.53 592.84
  A 0.63 0.63 0.0 0 0 981.78 592.22
  L 973.95 593.74
  A 0.91 0.90 -5.9 0 0 973.22 594.62
  L 973.22 596.03
  A 0.84 0.83 -0.0 0 0 974.06 596.86
  L 975.74 596.86
  A 0.49 0.49 0.0 0 1 976.23 597.35
  Z"
/>
<path fill="#000000" d="
  M 932.43 471.20
  A 0.41 0.41 0.0 0 0 933.16 471.46
  Q 936.45 467.45 939.70 468.10
  C 945.35 469.22 942.74 477.02 937.85 474.13
  A 1.40 1.37 5.2 0 1 937.29 473.47
  L 936.93 472.54
  A 0.58 0.58 0.0 0 0 936.09 472.25
  Q 932.37 474.44 932.51 478.46
  Q 932.64 482.47 932.43 486.97
  A 0.70 0.69 1.5 0 0 933.13 487.70
  L 934.59 487.70
  A 0.70 0.70 0.0 0 1 935.29 488.40
  L 935.29 490.23
  A 0.75 0.75 0.0 0 1 934.54 490.98
  L 924.15 490.98
  A 0.61 0.61 0.0 0 1 923.54 490.37
  L 923.54 488.86
  A 0.84 0.83 -2.6 0 1 924.30 488.03
  Q 926.20 487.85 926.20 484.98
  Q 926.20 475.25 926.40 473.45
  A 0.51 0.50 -86.9 0 0 925.90 472.89
  L 923.74 472.89
  A 0.48 0.47 -0.0 0 1 923.26 472.42
  L 923.26 470.29
  A 0.69 0.69 0.0 0 1 923.95 469.60
  Q 927.24 469.56 931.07 468.18
  A 1.02 1.01 -9.9 0 1 932.43 469.13
  L 932.43 471.20
  Z"
/>
<path fill="#000000" d="
  M 957.2321 468.0278
  A 11.98 11.32 -81.3 0 1 966.6098 481.5823
  A 11.98 11.32 -81.3 0 1 953.6079 491.7122
  A 11.98 11.32 -81.3 0 1 944.2302 478.1577
  A 11.98 11.32 -81.3 0 1 957.2321 468.0278
  Z
  M 955.0735 470.9260
  A 8.91 4.76 -92.1 0 0 950.6432 480.0044
  A 8.91 4.76 -92.1 0 0 955.7265 488.7340
  A 8.91 4.76 -92.1 0 0 960.1568 479.6556
  A 8.91 4.76 -92.1 0 0 955.0735 470.9260
  Z"
/>
<path fill="#000000" d="
  M 1022.27 479.46
  Q 1022.13 480.65 1022.48 482.27
  C 1023.91 488.78 1029.88 489.27 1034.48 485.03
  A 0.95 0.94 -43.9 0 1 1035.79 485.05
  L 1036.45 485.71
  A 1.04 1.03 -46.7 0 1 1036.49 487.13
  Q 1031.59 492.66 1024.57 491.47
  C 1014.71 489.80 1013.13 477.29 1019.28 471.06
  C 1022.45 467.84 1027.68 467.14 1031.68 469.03
  Q 1036.82 471.46 1036.83 478.63
  A 0.49 0.48 -90.0 0 1 1036.35 479.12
  L 1022.66 479.12
  A 0.40 0.39 -85.8 0 0 1022.27 479.46
  Z
  M 1022.94 476.16
  L 1030.54 476.18
  A 0.22 0.22 0.0 0 0 1030.76 475.96
  L 1030.76 475.78
  A 4.68 3.92 -89.8 0 0 1026.86 471.09
  L 1026.66 471.09
  A 4.68 3.92 -89.8 0 0 1022.72 475.76
  L 1022.72 475.94
  A 0.22 0.22 0.0 0 0 1022.94 476.16
  Z"
/>
<path fill="#000000" d="
  M 1048.95 471.19
  A 0.41 0.41 0.0 0 0 1049.68 471.45
  Q 1052.98 467.44 1056.23 468.09
  C 1061.89 469.22 1059.26 477.03 1054.37 474.13
  A 1.40 1.38 5.3 0 1 1053.81 473.47
  L 1053.45 472.54
  A 0.58 0.58 0.0 0 0 1052.61 472.24
  Q 1048.88 474.43 1049.02 478.46
  Q 1049.15 482.47 1048.93 486.98
  A 0.70 0.69 1.6 0 0 1049.63 487.71
  L 1051.09 487.71
  A 0.70 0.70 0.0 0 1 1051.79 488.41
  L 1051.79 490.24
  A 0.75 0.75 0.0 0 1 1051.04 490.99
  L 1040.64 490.98
  A 0.61 0.61 0.0 0 1 1040.03 490.37
  L 1040.03 488.86
  A 0.84 0.83 -2.6 0 1 1040.79 488.03
  Q 1042.69 487.85 1042.70 484.98
  Q 1042.71 475.24 1042.91 473.43
  A 0.51 0.50 -86.9 0 0 1042.41 472.87
  L 1040.25 472.87
  A 0.48 0.47 0.1 0 1 1039.77 472.40
  L 1039.77 470.27
  A 0.69 0.69 0.0 0 1 1040.46 469.58
  Q 1043.76 469.54 1047.59 468.16
  A 1.02 1.01 -9.9 0 1 1048.95 469.12
  L 1048.95 471.19
  Z"
/>
<path fill="#000000" d="
  M 1064.87 490.85
  Q 1064.53 491.64 1062.21 491.27
  A 0.74 0.73 4.6 0 1 1061.59 490.55
  L 1061.59 484.93
  A 1.51 1.51 0.0 0 1 1064.49 484.35
  Q 1066.24 488.54 1071.49 488.48
  Q 1073.99 488.44 1074.35 486.46
  A 2.26 1.83 17.6 0 0 1072.92 484.29
  C 1068.61 482.49 1060.90 480.62 1061.32 475.08
  C 1061.83 468.28 1068.47 466.82 1074.09 468.98
  A 0.80 0.79 -56.5 0 0 1074.94 468.80
  Q 1075.89 467.86 1077.89 468.22
  A 0.64 0.64 0.0 0 1 1078.42 468.85
  L 1078.42 474.75
  A 1.60 1.60 0.0 0 1 1075.31 475.27
  Q 1073.69 470.56 1068.44 471.26
  C 1065.98 471.58 1065.75 474.69 1067.93 475.62
  C 1071.12 476.99 1077.98 478.45 1079.32 482.63
  C 1080.54 486.41 1078.85 489.57 1075.20 491.03
  Q 1071.29 492.60 1065.83 490.46
  A 0.75 0.74 22.8 0 0 1064.87 490.85
  Z"
/>
<ellipse fill="#b1d9b7" cx="0.00" cy="0.00" transform="translate(955.40,479.83) rotate(-92.1)" rx="8.91" ry="4.76"/>
<path fill="#b1d9b7" d="
  M 1022.94 476.16
  A 0.22 0.22 0.0 0 1 1022.72 475.94
  L 1022.72 475.76
  A 4.68 3.92 -89.8 0 1 1026.66 471.09
  L 1026.86 471.09
  A 4.68 3.92 -89.8 0 1 1030.76 475.78
  L 1030.76 475.96
  A 0.22 0.22 0.0 0 1 1030.54 476.18
  L 1022.94 476.16
  Z"
/>
<path fill="#b1d9b7" d="
  M 1133.95 471.77
  L 1150.77 475.27
  A 0.43 0.43 0.0 0 1 1150.99 475.99
  L 1068.40 558.58
  A 0.43 0.43 0.0 0 1 1067.67 558.30
  L 1066.88 543.71
  A 0.43 0.43 0.0 0 1 1066.99 543.40
  L 1133.54 471.90
  A 0.43 0.43 0.0 0 1 1133.95 471.77
  Z"
/>
<path fill="#b1d9b7" d="
  M 860.53 515.36
  L 860.09 517.46
  A 0.60 0.60 0.0 0 0 860.70 518.18
  Q 865.59 518.00 869.48 519.76
  C 872.93 521.32 871.97 526.88 871.20 530.23
  Q 869.66 536.93 867.77 543.49
  A 2.28 2.25 -14.0 0 1 867.16 544.49
  C 862.67 548.77 854.12 550.02 847.31 549.82
  C 839.90 549.60 839.52 544.17 841.03 538.27
  Q 849.13 506.64 853.61 490.45
  A 0.74 0.73 -83.5 0 1 854.29 489.90
  C 866.12 489.39 876.68 489.98 880.72 502.41
  Q 882.47 507.81 882.08 514.39
  A 0.44 0.44 0.0 0 1 881.64 514.80
  L 861.21 514.80
  A 0.69 0.69 0.0 0 0 860.53 515.36
  Z"
/>
<path fill="#b1d9b7" d="
  M 919.87 557.73
  Q 913.25 557.96 908.25 560.82
  A 1.97 1.97 0.0 0 0 907.84 563.92
  Q 909.71 565.79 913.32 566.29
  Q 910.74 569.05 908.10 570.45
  Q 899.72 568.32 890.81 572.11
  Q 889.31 572.75 889.26 573.61
  Q 888.73 573.96 888.32 573.68
  A 0.40 0.40 0.0 0 1 888.16 573.25
  L 895.76 544.47
  A 2.17 2.10 79.6 0 1 896.53 543.31
  Q 899.87 540.77 901.02 539.76
  Q 910.61 531.27 911.86 518.65
  A 0.63 0.62 3.4 0 1 912.51 518.08
  Q 922.93 518.45 924.59 528.83
  Q 927.03 544.14 919.87 557.73
  Z"
/>
<path fill="#000000" d="
  M 990.61 539.25
  Q 990.61 544.84 990.60 551.27
  A 0.51 0.51 0.0 0 0 991.21 551.77
  L 992.65 551.49
  A 1.01 1.01 0.0 0 1 993.85 552.48
  L 993.85 554.03
  A 0.95 0.95 0.0 0 1 992.90 554.98
  L 981.75 554.98
  A 0.81 0.81 0.0 0 1 980.94 554.17
  L 980.94 553.06
  A 1.13 1.12 86.9 0 1 981.94 551.94
  Q 984.21 551.69 984.18 548.75
  Q 984.18 548.25 984.17 539.50
  Q 984.17 533.90 984.18 527.47
  A 0.51 0.51 0.0 0 0 983.57 526.97
  L 982.13 527.25
  A 1.01 1.01 0.0 0 1 980.93 526.26
  L 980.93 524.71
  A 0.95 0.95 0.0 0 1 981.88 523.76
  L 993.03 523.76
  A 0.81 0.81 0.0 0 1 993.84 524.57
  L 993.84 525.68
  A 1.13 1.12 86.9 0 1 992.84 526.80
  Q 990.57 527.05 990.60 529.99
  Q 990.60 530.50 990.61 539.25
  Z"
/>
<path fill="#000000" d="
  M 1020.46 547.09
  L 1020.31 551.07
  A 0.62 0.62 0.0 0 0 1020.96 551.72
  L 1022.27 551.64
  A 0.62 0.62 0.0 0 1 1022.92 552.23
  L 1023.04 554.33
  A 0.68 0.68 0.0 0 1 1022.38 555.04
  L 1014.52 555.25
  L 1011.92 554.94
  A 0.70 0.70 0.0 0 1 1011.31 554.25
  L 1011.31 552.84
  A 0.75 0.75 0.0 0 1 1011.98 552.09
  Q 1012.78 552.00 1013.33 551.50
  A 1.51 1.47 71.9 0 0 1013.81 550.52
  Q 1014.14 546.42 1013.98 542.00
  C 1013.80 537.00 1012.07 534.37 1006.88 537.12
  A 1.11 1.10 76.2 0 0 1006.29 538.10
  L 1006.29 551.22
  A 0.55 0.54 -1.5 0 0 1006.87 551.76
  L 1008.42 551.68
  A 0.55 0.55 0.0 0 1 1009.00 552.20
  L 1009.12 554.36
  A 0.60 0.60 0.0 0 1 1008.52 554.99
  L 997.93 554.99
  A 0.68 0.68 0.0 0 1 997.26 554.44
  Q 996.83 552.31 998.54 551.86
  A 1.77 1.76 83.1 0 0 999.85 550.18
  Q 1000.05 538.33 1000.09 537.22
  A 0.38 0.38 0.0 0 0 999.69 536.83
  L 997.53 536.95
  A 0.44 0.43 86.1 0 1 997.07 536.54
  L 996.95 534.34
  A 0.71 0.71 0.0 0 1 997.66 533.59
  Q 1001.10 533.61 1004.99 532.11
  A 0.72 0.71 47.7 0 1 1005.56 532.14
  Q 1006.20 532.45 1006.14 533.87
  A 0.38 0.37 -18.0 0 0 1006.75 534.18
  Q 1007.95 533.22 1009.84 532.64
  C 1021.16 529.15 1020.18 539.96 1020.46 547.09
  Z"
/>
<path fill="#74ae62" d="
  M 950.12 551.47
  L 951.04 554.79
  A 0.84 0.84 0.0 0 0 951.82 555.40
  Q 960.70 555.70 969.81 557.17
  C 973.52 557.77 980.29 558.86 982.72 561.36
  A 2.07 2.07 0.0 0 1 982.31 564.57
  Q 979.81 566.11 975.49 566.94
  Q 952.06 571.46 927.92 569.10
  Q 942.02 563.89 950.12 551.47
  Z"
/>
<path fill="#74ae62" d="
  M 919.87 557.73
  Q 917.16 562.93 913.32 566.29
  Q 909.71 565.79 907.84 563.92
  A 1.97 1.97 0.0 0 1 908.25 560.82
  Q 913.25 557.96 919.87 557.73
  Z"
/>
<path fill="#74ae62" d="
  M 908.10 570.45
  Q 899.45 574.91 889.26 573.61
  Q 889.31 572.75 890.81 572.11
  Q 899.72 568.32 908.10 570.45
  Z"
/>
<path fill="#74ae62" d="
  M 908.54 623.78
  L 898.93 623.02
  A 1.23 1.22 -5.0 0 1 897.84 622.11
  Q 894.00 607.31 881.45 598.66
  L 887.02 577.50
  A 0.74 0.73 -83.5 0 1 887.70 576.95
  C 893.02 576.68 899.94 576.47 904.53 578.49
  Q 912.64 582.08 914.55 590.23
  Q 918.74 608.09 908.54 623.78
  Z"
/>
<ellipse fill="#000000" cx="0.00" cy="0.00" transform="translate(1016.05,584.61) rotate(-91.1)" rx="3.71" ry="3.35"/>
<path fill="#000000" d="
  M 975.74 596.86
  L 974.06 596.86
  A 0.84 0.83 -0.0 0 1 973.22 596.03
  L 973.22 594.62
  A 0.91 0.90 -5.9 0 1 973.95 593.74
  L 981.78 592.22
  A 0.63 0.63 0.0 0 1 982.53 592.84
  L 982.53 611.11
  A 0.60 0.59 -90.0 0 0 983.12 611.71
  L 984.79 611.71
  A 0.51 0.50 0.0 0 1 985.30 612.21
  L 985.30 614.27
  A 0.72 0.71 -0.0 0 1 984.58 614.98
  L 977.38 614.98
  A 0.72 0.72 0.0 0 1 976.66 614.26
  L 976.66 613.22
  A 0.33 0.33 0.0 0 0 976.11 612.97
  Q 971.75 616.72 966.81 615.24
  C 961.03 613.50 962.40 602.35 962.53 597.53
  A 0.65 0.65 0.0 0 0 961.88 596.87
  L 960.25 596.87
  A 0.91 0.91 0.0 0 1 959.34 595.96
  L 959.34 594.59
  A 0.85 0.84 84.6 0 1 960.02 593.76
  L 967.80 592.25
  A 0.81 0.81 0.0 0 1 968.77 593.05
  L 968.77 608.30
  A 3.31 3.31 0.0 0 0 972.51 611.58
  L 973.03 611.51
  A 3.67 3.67 0.0 0 0 976.23 607.87
  L 976.23 597.35
  A 0.49 0.49 0.0 0 0 975.74 596.86
  Z"
/>
<path fill="#000000" d="
  M 1005.23 596.29
  L 1005.14 599.37
  A 0.72 0.71 86.7 0 1 1004.54 600.06
  Q 1003.59 600.22 1002.71 599.98
  A 0.98 0.97 89.4 0 1 1002.01 599.29
  L 1001.65 598.03
  Q 999.82 594.90 995.75 595.16
  Q 993.91 595.28 993.33 596.65
  C 992.37 598.94 995.23 600.19 996.98 600.46
  C 1000.80 601.87 1005.47 603.30 1006.33 607.79
  C 1007.11 611.85 1004.05 614.90 1000.23 615.50
  Q 996.34 616.11 992.82 614.52
  A 0.87 0.87 0.0 0 0 991.90 614.64
  Q 990.99 615.40 989.74 615.32
  Q 988.44 615.25 988.38 614.11
  Q 988.25 611.23 988.31 608.34
  A 0.66 0.64 -5.7 0 1 988.83 607.72
  Q 990.06 607.44 991.16 608.03
  Q 993.01 612.65 998.26 612.56
  Q 1000.08 612.52 1000.79 611.46
  A 2.08 2.08 0.0 0 0 999.88 608.40
  Q 995.91 606.71 992.28 605.18
  C 988.22 603.46 986.82 599.38 989.05 595.63
  C 991.47 591.56 996.51 591.37 1000.79 592.90
  A 0.95 0.94 35.3 0 0 1001.70 592.75
  Q 1002.83 591.84 1004.55 592.23
  A 0.75 0.74 5.6 0 1 1005.13 592.93
  L 1005.23 596.29
  Z"
/>
<path fill="#000000" d="
  M 1032.72 592.03
  L 1033.33 593.82
  A 0.41 0.41 0.0 0 0 1033.93 594.03
  Q 1036.65 592.28 1039.72 592.10
  C 1046.35 591.72 1047.58 597.44 1047.29 602.79
  L 1047.28 611.11
  A 0.63 0.63 0.0 0 0 1047.91 611.74
  L 1049.30 611.74
  A 0.68 0.68 0.0 0 1 1049.98 612.50
  Q 1049.88 613.39 1050.07 614.19
  A 0.65 0.65 0.0 0 1 1049.44 614.98
  L 1039.08 614.98
  A 0.68 0.67 -2.3 0 1 1038.40 614.36
  L 1038.25 612.47
  Q 1038.50 611.93 1039.44 611.81
  Q 1040.52 611.67 1040.68 610.51
  Q 1041.35 605.47 1040.77 599.24
  A 3.50 3.49 -2.6 0 0 1037.29 596.07
  L 1036.73 596.07
  A 3.46 3.45 0.0 0 0 1033.27 599.52
  L 1033.27 611.23
  A 0.44 0.43 -0.0 0 0 1033.71 611.66
  L 1035.66 611.66
  A 0.42 0.42 0.0 0 1 1036.08 612.08
  L 1036.08 614.47
  A 0.55 0.54 0.0 0 1 1035.53 615.01
  L 1024.86 615.01
  A 0.55 0.55 0.0 0 1 1024.31 614.46
  L 1024.31 612.78
  A 0.77 0.77 0.0 0 1 1025.06 612.01
  Q 1026.86 611.96 1026.88 609.65
  Q 1026.96 600.12 1027.09 597.44
  A 0.53 0.53 0.0 0 0 1026.56 596.89
  L 1024.69 596.89
  A 0.64 0.63 -90.0 0 1 1024.06 596.25
  L 1024.05 593.79
  L 1032.72 592.03
  Z"
/>
<path fill="#000000" d="
  M 1071.16 603.12
  L 1059.55 603.25
  A 0.57 0.57 0.0 0 0 1058.99 603.82
  C 1059.03 607.71 1060.52 611.86 1065.26 611.65
  Q 1069.00 611.49 1070.95 609.13
  A 1.12 1.12 0.0 0 1 1072.61 609.06
  L 1072.97 609.42
  A 1.37 1.36 -47.1 0 1 1073.03 611.25
  Q 1068.99 616.04 1062.75 615.66
  C 1055.16 615.20 1051.65 608.96 1052.57 601.93
  C 1053.86 593.62 1062.40 589.34 1069.42 593.63
  Q 1073.81 596.30 1073.44 602.44
  A 0.56 0.55 89.4 0 1 1072.94 602.96
  L 1071.16 603.12
  Z
  M 1059.78 600.15
  L 1067.24 600.13
  A 0.28 0.28 0.0 0 0 1067.52 599.85
  L 1067.52 599.67
  A 4.56 3.95 89.8 0 0 1063.55 595.12
  L 1063.43 595.12
  A 4.56 3.95 89.8 0 0 1059.50 599.69
  L 1059.50 599.87
  A 0.28 0.28 0.0 0 0 1059.78 600.15
  Z"
/>
<path fill="#000000" d="
  M 1084.03 615.45
  L 1081.28 614.54
  A 0.88 0.87 31.9 0 0 1080.39 614.74
  Q 1079.41 615.67 1077.66 615.26
  A 0.67 0.67 0.0 0 1 1077.13 614.62
  L 1077.08 607.42
  L 1079.29 607.76
  A 0.87 0.87 0.0 0 1 1079.94 608.24
  Q 1082.42 613.36 1088.22 612.20
  A 1.96 1.81 -19.0 0 0 1089.65 609.53
  Q 1089.17 608.63 1087.76 607.99
  C 1084.47 606.51 1078.76 605.41 1076.93 601.00
  A 2.58 2.50 35.1 0 1 1076.72 599.90
  C 1076.91 592.52 1083.42 590.66 1089.53 592.91
  A 0.90 0.89 -54.3 0 0 1090.41 592.76
  Q 1091.58 591.81 1093.36 592.22
  A 0.73 0.72 -83.5 0 1 1093.92 592.93
  L 1093.92 599.59
  A 0.49 0.49 0.0 0 1 1093.43 600.08
  L 1091.60 600.08
  A 0.72 0.70 -9.9 0 1 1090.93 599.62
  Q 1088.86 594.14 1083.37 595.38
  A 1.47 1.46 -78.4 0 0 1082.48 595.97
  C 1081.17 597.80 1082.38 599.31 1084.32 600.00
  C 1088.33 601.39 1094.19 602.98 1095.01 607.35
  C 1096.31 614.20 1089.68 616.46 1084.03 615.45
  Z"
/>
<path fill="#000000" d="
  M 1102.13 614.84
  Q 1101.79 615.63 1099.47 615.27
  A 0.74 0.73 4.5 0 1 1098.85 614.55
  L 1098.84 608.94
  A 1.51 1.51 0.0 0 1 1101.73 608.35
  Q 1103.49 612.53 1108.74 612.46
  Q 1111.23 612.42 1111.59 610.44
  A 2.26 1.83 17.5 0 0 1110.16 608.28
  C 1105.85 606.48 1098.14 604.63 1098.55 599.09
  C 1099.05 592.30 1105.68 590.83 1111.30 592.98
  A 0.80 0.78 -56.6 0 0 1112.15 592.80
  Q 1113.09 591.85 1115.09 592.21
  A 0.64 0.64 0.0 0 1 1115.62 592.84
  L 1115.63 598.73
  A 1.60 1.60 0.0 0 1 1112.53 599.26
  Q 1110.90 594.56 1105.66 595.27
  C 1103.20 595.59 1102.98 598.70 1105.16 599.62
  C 1108.35 600.99 1115.20 602.43 1116.55 606.61
  C 1117.77 610.38 1116.09 613.54 1112.45 615.01
  Q 1108.54 616.58 1103.08 614.45
  A 0.74 0.74 0.0 0 0 1102.13 614.84
  Z"
/>
<path fill="#000000" d="
  M 1018.81 594.02
  L 1018.76 610.94
  A 0.75 0.74 -90.0 0 0 1019.50 611.69
  L 1020.87 611.69
  A 0.69 0.69 0.0 0 1 1021.56 612.38
  L 1021.56 614.30
  A 0.70 0.69 90.0 0 1 1020.87 615.00
  L 1010.28 615.00
  A 0.43 0.43 0.0 0 1 1009.85 614.57
  L 1009.85 612.67
  A 0.58 0.58 0.0 0 1 1010.37 612.09
  Q 1012.33 611.91 1012.41 609.44
  Q 1012.47 607.46 1012.53 597.41
  A 0.59 0.59 0.0 0 0 1011.89 596.81
  L 1010.22 596.93
  A 0.52 0.49 53.1 0 1 1009.93 596.88
  Q 1009.18 596.50 1009.50 595.79
  Q 1009.50 594.91 1009.76 594.15
  A 0.84 0.84 0.0 0 1 1010.50 593.60
  C 1012.14 593.49 1013.33 593.46 1015.07 592.80
  Q 1019.31 591.16 1018.81 594.02
  Z"
/>
<path fill="#b1d9b7" d="
  M 1024.05 593.79
  L 1024.06 596.25
  A 0.64 0.63 -90.0 0 0 1024.69 596.89
  L 1026.56 596.89
  A 0.53 0.53 0.0 0 1 1027.09 597.44
  Q 1026.96 600.12 1026.88 609.65
  Q 1026.86 611.96 1025.06 612.01
  A 0.77 0.77 0.0 0 0 1024.31 612.78
  L 1024.31 614.46
  A 0.55 0.55 0.0 0 0 1024.86 615.01
  L 1035.53 615.01
  A 0.55 0.54 0.0 0 0 1036.08 614.47
  L 1036.08 612.08
  A 0.42 0.42 0.0 0 0 1035.66 611.66
  L 1033.71 611.66
  A 0.44 0.43 -0.0 0 1 1033.27 611.23
  L 1033.27 599.52
  A 3.46 3.45 -0.0 0 1 1036.73 596.07
  L 1037.29 596.07
  A 3.50 3.49 -2.6 0 1 1040.77 599.24
  Q 1041.35 605.47 1040.68 610.51
  Q 1040.52 611.67 1039.44 611.81
  Q 1038.50 611.93 1038.25 612.47
  Q 1034.57 617.82 1034.04 620.32
  Q 1030.48 637.20 1042.81 648.16
  C 1044.36 649.53 1046.85 650.53 1048.17 651.70
  A 0.22 0.22 0.0 0 1 1048.02 652.09
  L 871.58 652.09
  A 0.30 0.30 0.0 0 1 871.45 651.52
  Q 878.82 648.03 882.40 641.03
  L 893.16 640.74
  Q 894.27 641.01 894.37 641.28
  Q 894.83 642.45 896.11 642.46
  Q 958.28 642.53 1027.14 642.47
  A 0.21 0.20 90.0 0 0 1027.34 642.26
  L 1027.34 632.77
  A 0.26 0.25 0.0 0 0 1027.08 632.52
  L 926.17 632.67
  Q 933.82 628.19 938.59 622.68
  L 989.08 622.59
  A 0.57 0.56 83.8 0 0 989.63 621.90
  C 989.26 620.24 988.55 616.64 989.74 615.32
  Q 990.99 615.40 991.90 614.64
  A 0.87 0.87 0.0 0 1 992.82 614.52
  Q 996.34 616.11 1000.23 615.50
  C 1004.05 614.90 1007.11 611.85 1006.33 607.79
  C 1005.47 603.30 1000.80 601.87 996.98 600.46
  Q 998.93 598.68 1001.65 598.03
  L 1002.01 599.29
  A 0.98 0.97 89.4 0 0 1002.71 599.98
  Q 1003.59 600.22 1004.54 600.06
  A 0.72 0.71 86.7 0 0 1005.14 599.37
  L 1005.23 596.29
  L 1009.50 595.79
  Q 1009.18 596.50 1009.93 596.88
  A 0.52 0.49 53.1 0 0 1010.22 596.93
  L 1011.89 596.81
  A 0.59 0.59 0.0 0 1 1012.53 597.41
  Q 1012.47 607.46 1012.41 609.44
  Q 1012.33 611.91 1010.37 612.09
  A 0.58 0.58 0.0 0 0 1009.85 612.67
  L 1009.85 614.57
  A 0.43 0.43 0.0 0 0 1010.28 615.00
  L 1020.87 615.00
  A 0.70 0.69 90.0 0 0 1021.56 614.30
  L 1021.56 612.38
  A 0.69 0.69 0.0 0 0 1020.87 611.69
  L 1019.50 611.69
  A 0.75 0.74 -90.0 0 1 1018.76 610.94
  L 1018.81 594.02
  L 1024.05 593.79
  Z"
/>
<path fill="#74ae62" d="
  M 1001.65 598.03
  Q 998.93 598.68 996.98 600.46
  C 995.23 600.19 992.37 598.94 993.33 596.65
  Q 993.91 595.28 995.75 595.16
  Q 999.82 594.90 1001.65 598.03
  Z"
/>
<path fill="#b1d9b7" d="
  M 1059.78 600.15
  A 0.28 0.28 0.0 0 1 1059.50 599.87
  L 1059.50 599.69
  A 4.56 3.95 89.8 0 1 1063.43 595.12
  L 1063.55 595.12
  A 4.56 3.95 89.8 0 1 1067.52 599.67
  L 1067.52 599.85
  A 0.28 0.28 0.0 0 1 1067.24 600.13
  L 1059.78 600.15
  Z"
/>
<path fill="#b1d9b7" d="
  M 881.45 598.66
  Q 894.00 607.31 897.84 622.11
  A 1.23 1.22 -5.0 0 0 898.93 623.02
  L 908.54 623.78
  Q 899.61 636.07 884.85 636.80
  Q 885.61 633.89 885.98 631.27
  Q 887.80 618.17 878.80 609.42
  L 881.45 598.66
  Z"
/>
<path fill="#74ae62" d="
  M 852.29 601.65
  Q 849.24 613.36 846.04 624.85
  C 844.34 630.95 841.78 636.13 834.67 636.70
  C 829.38 621.66 837.32 606.73 852.29 601.65
  Z"
/>
<path fill="#74ae62" d="
  M 1052.57 601.93
  C 1051.65 608.96 1055.16 615.20 1062.75 615.66
  Q 1068.99 616.04 1073.03 611.25
  A 1.37 1.36 -47.1 0 0 1072.97 609.42
  L 1072.61 609.06
  A 1.12 1.12 0.0 0 0 1070.95 609.13
  Q 1069.00 611.49 1065.26 611.65
  C 1060.52 611.86 1059.03 607.71 1058.99 603.82
  A 0.57 0.57 0.0 0 1 1059.55 603.25
  L 1071.16 603.12
  L 1077.08 607.42
  L 1077.13 614.62
  A 0.67 0.67 0.0 0 0 1077.66 615.26
  Q 1079.41 615.67 1080.39 614.74
  A 0.88 0.87 31.9 0 1 1081.28 614.54
  L 1084.03 615.45
  Q 1084.24 617.08 1084.82 618.61
  Q 1085.68 620.93 1085.81 621.72
  Q 1089.02 641.62 1071.76 651.67
  A 0.21 0.21 0.0 0 0 1071.86 652.06
  L 1175.30 652.04
  A 24.48 1.81 -62.5 0 1 1173.69 655.10
  Q 1174.18 654.06 1173.26 654.06
  Q 963.71 654.03 798.08 654.07
  A 0.87 0.86 8.3 0 1 797.25 652.96
  Q 799.45 645.63 804.99 639.39
  A 0.19 0.18 -51.3 0 1 805.23 639.36
  L 805.23 639.37
  A 0.19 0.19 0.0 0 1 805.28 639.63
  Q 801.71 645.27 799.78 651.66
  A 0.29 0.28 -81.6 0 0 800.05 652.03
  L 847.72 652.03
  A 0.26 0.25 -31.2 0 0 847.84 651.55
  Q 840.57 647.85 836.37 640.73
  Q 858.77 640.05 882.40 641.03
  Q 878.82 648.03 871.45 651.52
  A 0.30 0.30 0.0 0 0 871.58 652.09
  L 1048.02 652.09
  A 0.22 0.22 0.0 0 0 1048.17 651.70
  C 1046.85 650.53 1044.36 649.53 1042.81 648.16
  Q 1030.48 637.20 1034.04 620.32
  Q 1034.57 617.82 1038.25 612.47
  L 1038.40 614.36
  A 0.68 0.67 -2.3 0 0 1039.08 614.98
  L 1049.44 614.98
  A 0.65 0.65 0.0 0 0 1050.07 614.19
  Q 1049.88 613.39 1049.98 612.50
  A 0.68 0.68 0.0 0 0 1049.30 611.74
  L 1047.91 611.74
  A 0.63 0.63 0.0 0 1 1047.28 611.11
  L 1047.29 602.79
  Q 1048.15 603.36 1049.08 602.82
  Q 1050.82 601.82 1052.57 601.93
  Z"
/>
<path fill="#b1d9b7" d="
  M 992.28 605.18
  Q 995.91 606.71 999.88 608.40
  A 2.08 2.08 0.0 0 1 1000.79 611.46
  Q 1000.08 612.52 998.26 612.56
  Q 993.01 612.65 991.16 608.03
  Q 991.30 606.29 992.28 605.18
  Z"
/>
<path fill="#74ae62" d="
  M 884.85 636.80
  Q 881.34 637.18 877.73 636.29
  C 873.66 635.28 873.47 631.29 874.12 627.79
  Q 875.75 619.19 878.80 609.42
  Q 887.80 618.17 885.98 631.27
  Q 885.61 633.89 884.85 636.80
  Z"
/>
<path fill="#74ae62" d="
  M 763.38 626.13
  A 0.12 0.12 0.0 0 1 763.59 626.26
  Q 757.40 638.53 756.15 652.95
  A 1.34 1.34 0.0 0 1 754.81 654.18
  L 754.17 654.18
  A 0.96 0.96 0.0 0 1 753.23 653.05
  C 754.94 643.89 757.73 633.56 763.38 626.13
  Z"
/>
<path fill="#74ae62" d="
  M 784.36 630.03
  L 784.37 630.04
  A 0.50 0.49 22.4 0 1 784.64 630.68
  Q 780.17 641.92 779.32 653.69
  A 0.27 0.26 1.1 0 1 779.05 653.94
  L 776.49 653.94
  A 0.21 0.21 0.0 0 1 776.28 653.70
  Q 778.24 641.12 783.72 630.26
  A 0.49 0.49 0.0 0 1 784.36 630.03
  Z"
/>
<path fill="#74ae62" d="
  M 773.02 631.89
  Q 767.18 642.16 766.22 653.37
  A 0.74 0.74 0.0 0 1 765.48 654.04
  L 763.80 654.04
  A 0.57 0.57 0.0 0 1 763.24 653.36
  Q 765.50 641.29 772.74 631.64
  A 0.16 0.15 -54.7 0 1 772.95 631.60
  L 772.95 631.61
  A 0.21 0.21 0.0 0 1 773.02 631.89
  Z"
/>
<path fill="#74ae62" d="
  M 926.17 632.67
  L 1027.08 632.52
  A 0.26 0.25 -0.0 0 1 1027.34 632.77
  L 1027.34 642.26
  A 0.21 0.20 90.0 0 1 1027.14 642.47
  Q 958.28 642.53 896.11 642.46
  Q 894.83 642.45 894.37 641.28
  Q 894.27 641.01 893.16 640.74
  Q 910.81 640.08 926.17 632.67
  Z"
/>
<path fill="#74ae62" d="
  M 795.92 635.82
  L 796.01 635.87
  A 0.27 0.27 0.0 0 1 796.09 636.22
  Q 791.75 643.76 790.42 653.20
  A 1.14 1.14 0.0 0 1 789.29 654.18
  L 788.63 654.18
  A 0.85 0.85 0.0 0 1 787.80 653.16
  Q 789.66 643.74 795.57 635.88
  A 0.26 0.25 -54.0 0 1 795.92 635.82
  Z"
/>
<path fill="#000000" d="
  M 894.56 681.52
  L 895.27 681.52
  A 0.77 0.77 0.0 0 1 896.04 682.29
  L 896.04 683.25
  A 0.75 0.75 0.0 0 1 895.29 684.00
  L 890.01 684.00
  A 1.08 1.08 0.0 0 1 889.50 681.97
  Q 890.88 681.23 891.37 680.13
  Q 892.61 677.36 898.08 661.86
  A 1.59 1.59 0.0 0 1 901.06 661.82
  L 908.53 681.06
  A 0.89 0.87 79.2 0 0 909.35 681.63
  L 909.80 681.63
  A 0.55 0.55 0.0 0 1 910.35 682.18
  L 910.35 683.40
  A 0.58 0.58 0.0 0 1 909.77 683.98
  L 902.48 683.98
  A 0.96 0.96 0.0 0 1 901.89 682.26
  Q 904.21 680.46 902.29 677.82
  A 1.11 1.10 -18.1 0 0 901.40 677.37
  L 895.87 677.37
  A 1.05 1.04 -82.4 0 0 894.86 678.15
  L 894.12 680.95
  A 0.45 0.45 0.0 0 0 894.56 681.52
  Z
  M 898.73 675.02
  Q 900.30 674.99 900.77 674.93
  A 0.48 0.48 0.0 0 0 901.16 674.29
  L 898.73 667.41
  A 0.16 0.03 72.2 0 0 898.66 667.29
  Q 898.62 667.28 898.58 667.28
  Q 898.56 667.28 898.52 667.29
  A 0.16 0.03 -74.3 0 0 898.45 667.42
  L 896.27 674.38
  A 0.48 0.48 0.0 0 0 896.68 675.01
  Q 897.15 675.05 898.73 675.02
  Z"
/>
<path fill="#000000" d="
  M 992.36 680.95
  A 0.45 0.45 0.0 0 0 992.80 681.52
  L 993.51 681.52
  A 0.77 0.77 0.0 0 1 994.28 682.29
  L 994.28 683.25
  A 0.75 0.75 0.0 0 1 993.53 684.00
  L 988.25 683.99
  A 1.08 1.08 0.0 0 1 987.74 681.96
  Q 989.12 681.22 989.61 680.12
  Q 990.86 677.35 996.36 661.86
  A 1.59 1.59 0.0 0 1 999.34 661.83
  L 1006.77 681.08
  A 0.89 0.87 79.3 0 0 1007.59 681.65
  L 1008.04 681.65
  A 0.55 0.55 0.0 0 1 1008.59 682.20
  L 1008.59 683.42
  A 0.58 0.58 0.0 0 1 1008.01 684.00
  L 1000.72 683.99
  A 0.96 0.96 0.0 0 1 1000.13 682.27
  Q 1002.45 680.47 1000.54 677.83
  A 1.11 1.10 -18.0 0 0 999.65 677.38
  L 994.12 677.37
  A 1.05 1.04 -82.3 0 0 993.11 678.15
  L 992.36 680.95
  Z
  M 996.97 675.02
  Q 998.53 675.01 999.00 674.96
  A 0.48 0.48 0.0 0 0 999.40 674.33
  L 997.06 667.46
  A 0.16 0.03 72.9 0 0 996.99 667.34
  Q 996.95 667.32 996.92 667.32
  Q 996.89 667.32 996.86 667.34
  A 0.16 0.03 -73.6 0 0 996.79 667.46
  L 994.53 674.36
  A 0.48 0.48 0.0 0 0 994.94 674.99
  Q 995.40 675.03 996.97 675.02
  Z"
/>
<path fill="#000000" d="
  M 983.39 661.88
  Q 983.86 660.96 985.14 661.19
  A 0.75 0.75 0.0 0 1 985.76 661.93
  L 985.76 667.68
  A 1.15 1.15 0.0 0 1 983.49 667.94
  C 982.08 661.68 974.92 661.99 972.68 667.46
  Q 970.55 672.66 972.80 677.95
  C 975.22 683.62 981.76 682.54 985.09 678.65
  A 0.98 0.97 -46.7 0 1 986.53 678.60
  L 986.81 678.88
  A 0.78 0.78 0.0 0 1 986.86 679.90
  C 982.15 685.78 974.04 686.03 969.38 680.82
  C 965.86 676.88 965.85 670.01 968.78 665.82
  Q 973.68 658.84 982.61 662.19
  A 0.62 0.62 0.0 0 0 983.39 661.88
  Z"
/>
<path fill="#000000" d="
  M 878.24 681.60
  C 879.28 681.69 881.01 681.49 881.89 681.52
  C 885.53 681.66 885.23 679.03 886.19 676.62
  A 0.92 0.91 53.9 0 1 887.97 676.90
  L 888.06 683.28
  A 0.70 0.70 0.0 0 1 887.36 683.99
  L 871.77 683.99
  A 0.99 0.99 0.0 0 1 871.43 682.07
  Q 873.23 681.40 873.18 679.13
  Q 873.02 672.08 873.26 664.62
  A 0.70 0.69 1.2 0 0 872.56 663.90
  L 871.37 663.90
  A 0.55 0.55 0.0 0 1 870.82 663.35
  L 870.82 662.19
  A 0.65 0.64 90.0 0 1 871.46 661.54
  L 879.53 661.54
  A 0.52 0.51 -90.0 0 1 880.04 662.06
  L 880.04 663.08
  A 0.69 0.68 87.8 0 1 879.41 663.77
  Q 878.35 663.85 877.94 664.48
  A 0.72 0.68 -29.4 0 0 877.82 664.87
  L 877.69 681.01
  A 0.59 0.59 0.0 0 0 878.24 681.60
  Z"
/>
<path fill="#000000" d="
  M 919.20 677.11
  A 0.26 0.26 0.0 0 0 919.70 677.10
  L 923.51 662.64
  A 1.98 1.97 -46.0 0 1 927.31 662.57
  L 931.73 677.31
  A 0.18 0.18 0.0 0 0 932.07 677.30
  L 935.51 664.26
  A 0.27 0.27 0.0 0 0 935.25 663.92
  L 934.34 663.92
  A 0.77 0.77 0.0 0 1 933.57 663.15
  L 933.57 662.34
  A 0.80 0.80 0.0 0 1 934.37 661.54
  L 939.92 661.54
  A 1.11 1.10 33.3 0 1 940.36 663.66
  Q 938.27 664.56 937.50 667.04
  Q 932.62 682.94 932.55 683.16
  A 1.81 1.81 0.0 0 1 929.09 683.22
  L 924.50 668.86
  A 0.19 0.19 0.0 0 0 924.13 668.87
  L 920.38 683.08
  A 1.93 1.92 43.2 0 1 916.69 683.19
  L 910.58 664.72
  A 1.23 1.23 0.0 0 0 909.73 663.92
  L 909.25 663.79
  A 1.14 1.14 0.0 0 1 909.54 661.54
  L 917.39 661.54
  Q 917.41 661.54 917.43 661.54
  Q 918.66 661.63 918.10 663.08
  Q 917.90 663.58 917.26 663.77
  Q 916.50 664.00 916.25 664.38
  Q 915.95 664.84 916.14 665.61
  Q 917.48 671.16 919.20 677.11
  Z"
/>
<path fill="#000000" d="
  M 959.68 676.47
  L 959.68 664.49
  A 0.55 0.54 0.0 0 0 959.13 663.95
  L 957.99 663.95
  A 0.73 0.72 -90.0 0 1 957.27 663.22
  L 957.27 662.37
  A 0.79 0.79 0.0 0 1 958.05 661.58
  L 963.88 661.54
  A 0.96 0.95 -88.3 0 1 964.84 662.56
  L 964.83 662.59
  A 1.28 1.27 -2.3 0 1 963.76 663.74
  Q 962.40 663.95 962.40 666.25
  Q 962.41 674.53 962.42 683.82
  A 0.49 0.48 -90.0 0 1 961.94 684.31
  L 960.25 684.31
  A 1.20 1.19 71.2 0 1 959.30 683.84
  L 947.91 669.26
  A 0.16 0.16 0.0 0 0 947.63 669.36
  L 947.63 681.15
  A 0.46 0.46 0.0 0 0 948.09 681.61
  L 949.29 681.61
  A 0.73 0.73 0.0 0 1 950.02 682.34
  L 950.02 683.30
  A 0.71 0.70 -90.0 0 1 949.32 684.01
  L 943.55 684.01
  A 1.08 1.08 0.0 0 1 943.42 681.85
  Q 944.89 681.66 944.88 679.76
  Q 944.84 672.40 944.90 664.60
  A 0.67 0.67 0.0 0 0 944.23 663.93
  L 943.10 663.93
  A 0.59 0.58 0.0 0 1 942.51 663.35
  L 942.51 662.26
  A 0.72 0.72 0.0 0 1 943.23 661.54
  L 947.04 661.54
  A 1.30 1.28 70.5 0 1 948.05 662.03
  L 959.39 676.57
  A 0.16 0.16 0.0 0 0 959.68 676.47
  Z"
/>
<path fill="#000000" d="
  M 1023.73 674.86
  L 1028.21 680.82
  A 2.11 2.00 -1.5 0 0 1028.80 681.35
  L 1029.93 682.03
  A 1.03 1.03 0.0 0 1 1029.63 683.92
  C 1027.27 684.46 1024.74 684.38 1023.35 682.05
  Q 1020.61 677.45 1018.97 675.35
  A 0.96 0.96 0.0 0 0 1017.26 675.94
  L 1017.26 680.98
  A 0.59 0.58 90.0 0 0 1017.84 681.57
  L 1019.23 681.57
  A 0.71 0.71 0.0 0 1 1019.94 682.28
  L 1019.94 683.19
  A 0.80 0.79 -90.0 0 1 1019.15 683.99
  L 1011.18 683.99
  A 1.04 1.04 0.0 0 1 1010.90 681.95
  C 1012.09 681.61 1012.58 681.05 1012.60 679.69
  Q 1012.64 676.13 1012.68 664.65
  A 0.74 0.74 0.0 0 0 1011.94 663.91
  L 1010.89 663.91
  A 0.60 0.60 0.0 0 1 1010.29 663.31
  L 1010.29 662.20
  A 0.55 0.55 0.0 0 1 1010.81 661.65
  Q 1018.61 661.19 1023.37 661.89
  C 1027.64 662.52 1029.63 666.59 1028.08 670.60
  Q 1027.19 672.89 1023.91 674.22
  A 0.42 0.42 0.0 0 0 1023.73 674.86
  Z
  M 1017.34 664.74
  L 1017.30 671.96
  A 0.96 0.96 0.0 0 0 1018.26 672.93
  L 1019.82 672.94
  A 3.97 3.96 -89.7 0 0 1023.80 668.99
  L 1023.80 667.79
  A 3.97 3.96 -89.7 0 0 1019.86 663.80
  L 1018.30 663.79
  A 0.96 0.96 0.0 0 0 1017.34 664.74
  Z"
/>
<path fill="#000000" d="
  M 1039.30 670.79
  A 0.53 0.52 -0.0 0 0 1039.83 671.31
  L 1042.52 671.31
  A 0.58 0.57 -1.4 0 0 1043.10 670.71
  L 1043.02 669.20
  A 0.81 0.80 -1.7 0 1 1043.83 668.35
  L 1044.45 668.35
  A 0.92 0.92 0.0 0 1 1045.37 669.27
  L 1045.37 675.57
  A 0.78 0.78 0.0 0 1 1044.59 676.35
  L 1044.17 676.35
  A 1.08 1.08 0.0 0 1 1043.10 675.15
  Q 1043.31 673.35 1039.88 673.44
  A 0.66 0.66 0.0 0 0 1039.23 674.10
  L 1039.23 681.15
  A 0.50 0.49 88.4 0 0 1039.75 681.65
  L 1044.59 681.39
  A 2.64 2.64 0.0 0 0 1047.03 679.29
  L 1047.38 677.59
  A 0.95 0.95 0.0 0 1 1048.31 676.84
  L 1048.63 676.84
  A 0.75 0.75 0.0 0 1 1049.38 677.59
  L 1049.38 683.50
  A 0.46 0.45 -0.7 0 1 1048.93 683.95
  Q 1037.51 684.05 1033.09 683.94
  Q 1032.72 683.93 1032.54 683.79
  A 1.06 1.03 -33.3 0 1 1032.94 681.97
  Q 1034.69 681.49 1034.68 679.38
  Q 1034.58 666.28 1034.73 664.57
  A 0.60 0.60 0.0 0 0 1034.13 663.92
  L 1033.03 663.92
  A 0.80 0.80 0.0 0 1 1032.23 663.12
  L 1032.23 662.39
  A 0.85 0.84 90.0 0 1 1033.07 661.54
  L 1047.72 661.54
  A 0.64 0.64 0.0 0 1 1048.36 662.14
  Q 1048.63 666.57 1048.51 667.17
  A 0.99 0.99 0.0 0 1 1046.56 667.12
  Q 1045.97 662.82 1040.32 663.79
  A 1.22 1.22 0.0 0 0 1039.30 664.99
  L 1039.30 670.79
  Z"
/>
<path fill="#b1d9b7" d="
  M 1017.34 664.74
  A 0.96 0.96 0.0 0 1 1018.30 663.79
  L 1019.86 663.80
  A 3.97 3.96 -89.7 0 1 1023.80 667.79
  L 1023.80 668.99
  A 3.97 3.96 -89.7 0 1 1019.82 672.94
  L 1018.26 672.93
  A 0.96 0.96 0.0 0 1 1017.30 671.96
  L 1017.34 664.74
  Z"
/>
<path fill="#b1d9b7" d="
  M 898.73 675.02
  Q 897.15 675.05 896.68 675.01
  A 0.48 0.48 0.0 0 1 896.27 674.38
  L 898.45 667.42
  A 0.16 0.03 -74.3 0 1 898.52 667.29
  Q 898.56 667.28 898.58 667.28
  Q 898.62 667.28 898.66 667.29
  A 0.16 0.03 72.2 0 1 898.73 667.41
  L 901.16 674.29
  A 0.48 0.48 0.0 0 1 900.77 674.93
  Q 900.30 674.99 898.73 675.02
  Z"
/>
<path fill="#b1d9b7" d="
  M 996.92 667.32
  Q 996.95 667.32 996.99 667.34
  A 0.16 0.03 72.9 0 1 997.06 667.46
  L 999.40 674.33
  A 0.48 0.48 0.0 0 1 999.00 674.96
  Q 998.53 675.01 996.97 675.02
  Q 995.40 675.03 994.94 674.99
  A 0.48 0.48 0.0 0 1 994.53 674.36
  L 996.79 667.46
  A 0.16 0.03 -73.6 0 1 996.86 667.34
  Q 996.89 667.32 996.92 667.32
  Z"
/>
</svg>
